%FSLAX45Y45*%
G04 Gerber Fmt 4.5, Leading zero omitted, Abs format (unit mm)*
G04 Created by KiCad (PCBNEW 5.0.2+dfsg1-1) date Thu Aug  5 15:22:21 2021*
%MOMM*%
%LPD*%
G01*
G04 APERTURE LIST*
%ADD10C,0.200000*%
%ADD11C,0.300000*%
G04 APERTURE END LIST*
D10*
X21590000Y-7620000D02*
X10160000Y-7620000D01*
X21590000Y-11430000D02*
X21590000Y-7620000D01*
X10160000Y-11430000D02*
X21590000Y-11430000D01*
X10160000Y-7620000D02*
X10160000Y-11430000D01*
D10*
X10888000Y-9467000D02*
X10998000Y-9577000D01*
X10998000Y-9467000D02*
X10888000Y-9577000D01*
X10888000Y-9927000D02*
X10998000Y-10037000D01*
X10998000Y-9927000D02*
X10888000Y-10037000D01*
D11*
X10436428Y-11905714D02*
X10436428Y-11605714D01*
X10507857Y-11605714D01*
X10550714Y-11620000D01*
X10579286Y-11648571D01*
X10593571Y-11677143D01*
X10607857Y-11734286D01*
X10607857Y-11777143D01*
X10593571Y-11834286D01*
X10579286Y-11862857D01*
X10550714Y-11891429D01*
X10507857Y-11905714D01*
X10436428Y-11905714D01*
X10736428Y-11905714D02*
X10736428Y-11705714D01*
X10736428Y-11762857D02*
X10750714Y-11734286D01*
X10765000Y-11720000D01*
X10793571Y-11705714D01*
X10822143Y-11705714D01*
X10922143Y-11905714D02*
X10922143Y-11705714D01*
X10922143Y-11605714D02*
X10907857Y-11620000D01*
X10922143Y-11634286D01*
X10936428Y-11620000D01*
X10922143Y-11605714D01*
X10922143Y-11634286D01*
X11107857Y-11905714D02*
X11079286Y-11891429D01*
X11065000Y-11862857D01*
X11065000Y-11605714D01*
X11265000Y-11905714D02*
X11236428Y-11891429D01*
X11222143Y-11862857D01*
X11222143Y-11605714D01*
X11607857Y-11905714D02*
X11607857Y-11605714D01*
X11707857Y-11820000D01*
X11807857Y-11605714D01*
X11807857Y-11905714D01*
X12079286Y-11905714D02*
X12079286Y-11748571D01*
X12065000Y-11720000D01*
X12036428Y-11705714D01*
X11979286Y-11705714D01*
X11950714Y-11720000D01*
X12079286Y-11891429D02*
X12050714Y-11905714D01*
X11979286Y-11905714D01*
X11950714Y-11891429D01*
X11936428Y-11862857D01*
X11936428Y-11834286D01*
X11950714Y-11805714D01*
X11979286Y-11791429D01*
X12050714Y-11791429D01*
X12079286Y-11777143D01*
X12222143Y-11705714D02*
X12222143Y-12005714D01*
X12222143Y-11720000D02*
X12250714Y-11705714D01*
X12307857Y-11705714D01*
X12336428Y-11720000D01*
X12350714Y-11734286D01*
X12365000Y-11762857D01*
X12365000Y-11848571D01*
X12350714Y-11877143D01*
X12336428Y-11891429D01*
X12307857Y-11905714D01*
X12250714Y-11905714D01*
X12222143Y-11891429D01*
X12493571Y-11877143D02*
X12507857Y-11891429D01*
X12493571Y-11905714D01*
X12479286Y-11891429D01*
X12493571Y-11877143D01*
X12493571Y-11905714D01*
X12493571Y-11720000D02*
X12507857Y-11734286D01*
X12493571Y-11748571D01*
X12479286Y-11734286D01*
X12493571Y-11720000D01*
X12493571Y-11748571D01*
X10040000Y-12345000D02*
X10150000Y-12455000D01*
X10150000Y-12345000D02*
X10040000Y-12455000D01*
X10593571Y-12535714D02*
X10422143Y-12535714D01*
X10507857Y-12535714D02*
X10507857Y-12235714D01*
X10479286Y-12278571D01*
X10450714Y-12307143D01*
X10422143Y-12321429D01*
X10722143Y-12507143D02*
X10736428Y-12521429D01*
X10722143Y-12535714D01*
X10707857Y-12521429D01*
X10722143Y-12507143D01*
X10722143Y-12535714D01*
X11022143Y-12535714D02*
X10850714Y-12535714D01*
X10936428Y-12535714D02*
X10936428Y-12235714D01*
X10907857Y-12278571D01*
X10879286Y-12307143D01*
X10850714Y-12321429D01*
X11207857Y-12235714D02*
X11236428Y-12235714D01*
X11265000Y-12250000D01*
X11279286Y-12264286D01*
X11293571Y-12292857D01*
X11307857Y-12350000D01*
X11307857Y-12421429D01*
X11293571Y-12478571D01*
X11279286Y-12507143D01*
X11265000Y-12521429D01*
X11236428Y-12535714D01*
X11207857Y-12535714D01*
X11179286Y-12521429D01*
X11165000Y-12507143D01*
X11150714Y-12478571D01*
X11136428Y-12421429D01*
X11136428Y-12350000D01*
X11150714Y-12292857D01*
X11165000Y-12264286D01*
X11179286Y-12250000D01*
X11207857Y-12235714D01*
X11436428Y-12535714D02*
X11436428Y-12335714D01*
X11436428Y-12364286D02*
X11450714Y-12350000D01*
X11479286Y-12335714D01*
X11522143Y-12335714D01*
X11550714Y-12350000D01*
X11565000Y-12378571D01*
X11565000Y-12535714D01*
X11565000Y-12378571D02*
X11579286Y-12350000D01*
X11607857Y-12335714D01*
X11650714Y-12335714D01*
X11679286Y-12350000D01*
X11693571Y-12378571D01*
X11693571Y-12535714D01*
X11836428Y-12535714D02*
X11836428Y-12335714D01*
X11836428Y-12364286D02*
X11850714Y-12350000D01*
X11879286Y-12335714D01*
X11922143Y-12335714D01*
X11950714Y-12350000D01*
X11965000Y-12378571D01*
X11965000Y-12535714D01*
X11965000Y-12378571D02*
X11979286Y-12350000D01*
X12007857Y-12335714D01*
X12050714Y-12335714D01*
X12079286Y-12350000D01*
X12093571Y-12378571D01*
X12093571Y-12535714D01*
X12679286Y-12221429D02*
X12422143Y-12607143D01*
X13065000Y-12235714D02*
X13093571Y-12235714D01*
X13122143Y-12250000D01*
X13136428Y-12264286D01*
X13150714Y-12292857D01*
X13165000Y-12350000D01*
X13165000Y-12421429D01*
X13150714Y-12478571D01*
X13136428Y-12507143D01*
X13122143Y-12521429D01*
X13093571Y-12535714D01*
X13065000Y-12535714D01*
X13036428Y-12521429D01*
X13022143Y-12507143D01*
X13007857Y-12478571D01*
X12993571Y-12421429D01*
X12993571Y-12350000D01*
X13007857Y-12292857D01*
X13022143Y-12264286D01*
X13036428Y-12250000D01*
X13065000Y-12235714D01*
X13293571Y-12507143D02*
X13307857Y-12521429D01*
X13293571Y-12535714D01*
X13279286Y-12521429D01*
X13293571Y-12507143D01*
X13293571Y-12535714D01*
X13493571Y-12235714D02*
X13522143Y-12235714D01*
X13550714Y-12250000D01*
X13565000Y-12264286D01*
X13579286Y-12292857D01*
X13593571Y-12350000D01*
X13593571Y-12421429D01*
X13579286Y-12478571D01*
X13565000Y-12507143D01*
X13550714Y-12521429D01*
X13522143Y-12535714D01*
X13493571Y-12535714D01*
X13465000Y-12521429D01*
X13450714Y-12507143D01*
X13436428Y-12478571D01*
X13422143Y-12421429D01*
X13422143Y-12350000D01*
X13436428Y-12292857D01*
X13450714Y-12264286D01*
X13465000Y-12250000D01*
X13493571Y-12235714D01*
X13850714Y-12335714D02*
X13850714Y-12535714D01*
X13779286Y-12221429D02*
X13707857Y-12435714D01*
X13893571Y-12435714D01*
X13979286Y-12235714D02*
X14165000Y-12235714D01*
X14065000Y-12350000D01*
X14107857Y-12350000D01*
X14136428Y-12364286D01*
X14150714Y-12378571D01*
X14165000Y-12407143D01*
X14165000Y-12478571D01*
X14150714Y-12507143D01*
X14136428Y-12521429D01*
X14107857Y-12535714D01*
X14022143Y-12535714D01*
X13993571Y-12521429D01*
X13979286Y-12507143D01*
X14279286Y-12235714D02*
X14279286Y-12292857D01*
X14393571Y-12235714D02*
X14393571Y-12292857D01*
X14836428Y-12650000D02*
X14822143Y-12635714D01*
X14793571Y-12592857D01*
X14779286Y-12564286D01*
X14765000Y-12521429D01*
X14750714Y-12450000D01*
X14750714Y-12392857D01*
X14765000Y-12321429D01*
X14779286Y-12278571D01*
X14793571Y-12250000D01*
X14822143Y-12207143D01*
X14836428Y-12192857D01*
X14936428Y-12264286D02*
X14950714Y-12250000D01*
X14979286Y-12235714D01*
X15050714Y-12235714D01*
X15079286Y-12250000D01*
X15093571Y-12264286D01*
X15107857Y-12292857D01*
X15107857Y-12321429D01*
X15093571Y-12364286D01*
X14922143Y-12535714D01*
X15107857Y-12535714D01*
X15465000Y-12535714D02*
X15465000Y-12235714D01*
X15593571Y-12535714D02*
X15593571Y-12378571D01*
X15579286Y-12350000D01*
X15550714Y-12335714D01*
X15507857Y-12335714D01*
X15479286Y-12350000D01*
X15465000Y-12364286D01*
X15779286Y-12535714D02*
X15750714Y-12521429D01*
X15736428Y-12507143D01*
X15722143Y-12478571D01*
X15722143Y-12392857D01*
X15736428Y-12364286D01*
X15750714Y-12350000D01*
X15779286Y-12335714D01*
X15822143Y-12335714D01*
X15850714Y-12350000D01*
X15865000Y-12364286D01*
X15879286Y-12392857D01*
X15879286Y-12478571D01*
X15865000Y-12507143D01*
X15850714Y-12521429D01*
X15822143Y-12535714D01*
X15779286Y-12535714D01*
X16050714Y-12535714D02*
X16022143Y-12521429D01*
X16007857Y-12492857D01*
X16007857Y-12235714D01*
X16279286Y-12521429D02*
X16250714Y-12535714D01*
X16193571Y-12535714D01*
X16165000Y-12521429D01*
X16150714Y-12492857D01*
X16150714Y-12378571D01*
X16165000Y-12350000D01*
X16193571Y-12335714D01*
X16250714Y-12335714D01*
X16279286Y-12350000D01*
X16293571Y-12378571D01*
X16293571Y-12407143D01*
X16150714Y-12435714D01*
X16407857Y-12521429D02*
X16436428Y-12535714D01*
X16493571Y-12535714D01*
X16522143Y-12521429D01*
X16536428Y-12492857D01*
X16536428Y-12478571D01*
X16522143Y-12450000D01*
X16493571Y-12435714D01*
X16450714Y-12435714D01*
X16422143Y-12421429D01*
X16407857Y-12392857D01*
X16407857Y-12378571D01*
X16422143Y-12350000D01*
X16450714Y-12335714D01*
X16493571Y-12335714D01*
X16522143Y-12350000D01*
X16636428Y-12650000D02*
X16650714Y-12635714D01*
X16679286Y-12592857D01*
X16693571Y-12564286D01*
X16707857Y-12521429D01*
X16722143Y-12450000D01*
X16722143Y-12392857D01*
X16707857Y-12321429D01*
X16693571Y-12278571D01*
X16679286Y-12250000D01*
X16650714Y-12207143D01*
X16636428Y-12192857D01*
X17179286Y-12650000D02*
X17165000Y-12635714D01*
X17136428Y-12592857D01*
X17122143Y-12564286D01*
X17107857Y-12521429D01*
X17093571Y-12450000D01*
X17093571Y-12392857D01*
X17107857Y-12321429D01*
X17122143Y-12278571D01*
X17136428Y-12250000D01*
X17165000Y-12207143D01*
X17179286Y-12192857D01*
X17293571Y-12335714D02*
X17293571Y-12535714D01*
X17293571Y-12364286D02*
X17307857Y-12350000D01*
X17336428Y-12335714D01*
X17379286Y-12335714D01*
X17407857Y-12350000D01*
X17422143Y-12378571D01*
X17422143Y-12535714D01*
X17607857Y-12535714D02*
X17579286Y-12521429D01*
X17565000Y-12507143D01*
X17550714Y-12478571D01*
X17550714Y-12392857D01*
X17565000Y-12364286D01*
X17579286Y-12350000D01*
X17607857Y-12335714D01*
X17650714Y-12335714D01*
X17679286Y-12350000D01*
X17693571Y-12364286D01*
X17707857Y-12392857D01*
X17707857Y-12478571D01*
X17693571Y-12507143D01*
X17679286Y-12521429D01*
X17650714Y-12535714D01*
X17607857Y-12535714D01*
X17793571Y-12335714D02*
X17907857Y-12335714D01*
X17836428Y-12235714D02*
X17836428Y-12492857D01*
X17850714Y-12521429D01*
X17879286Y-12535714D01*
X17907857Y-12535714D01*
X18236428Y-12335714D02*
X18236428Y-12635714D01*
X18236428Y-12350000D02*
X18265000Y-12335714D01*
X18322143Y-12335714D01*
X18350714Y-12350000D01*
X18365000Y-12364286D01*
X18379286Y-12392857D01*
X18379286Y-12478571D01*
X18365000Y-12507143D01*
X18350714Y-12521429D01*
X18322143Y-12535714D01*
X18265000Y-12535714D01*
X18236428Y-12521429D01*
X18550714Y-12535714D02*
X18522143Y-12521429D01*
X18507857Y-12492857D01*
X18507857Y-12235714D01*
X18793571Y-12535714D02*
X18793571Y-12378571D01*
X18779286Y-12350000D01*
X18750714Y-12335714D01*
X18693571Y-12335714D01*
X18665000Y-12350000D01*
X18793571Y-12521429D02*
X18765000Y-12535714D01*
X18693571Y-12535714D01*
X18665000Y-12521429D01*
X18650714Y-12492857D01*
X18650714Y-12464286D01*
X18665000Y-12435714D01*
X18693571Y-12421429D01*
X18765000Y-12421429D01*
X18793571Y-12407143D01*
X18893571Y-12335714D02*
X19007857Y-12335714D01*
X18936428Y-12235714D02*
X18936428Y-12492857D01*
X18950714Y-12521429D01*
X18979286Y-12535714D01*
X19007857Y-12535714D01*
X19222143Y-12521429D02*
X19193571Y-12535714D01*
X19136428Y-12535714D01*
X19107857Y-12521429D01*
X19093571Y-12492857D01*
X19093571Y-12378571D01*
X19107857Y-12350000D01*
X19136428Y-12335714D01*
X19193571Y-12335714D01*
X19222143Y-12350000D01*
X19236428Y-12378571D01*
X19236428Y-12407143D01*
X19093571Y-12435714D01*
X19493571Y-12535714D02*
X19493571Y-12235714D01*
X19493571Y-12521429D02*
X19465000Y-12535714D01*
X19407857Y-12535714D01*
X19379286Y-12521429D01*
X19365000Y-12507143D01*
X19350714Y-12478571D01*
X19350714Y-12392857D01*
X19365000Y-12364286D01*
X19379286Y-12350000D01*
X19407857Y-12335714D01*
X19465000Y-12335714D01*
X19493571Y-12350000D01*
X19607857Y-12650000D02*
X19622143Y-12635714D01*
X19650714Y-12592857D01*
X19665000Y-12564286D01*
X19679286Y-12521429D01*
X19693571Y-12450000D01*
X19693571Y-12392857D01*
X19679286Y-12321429D01*
X19665000Y-12278571D01*
X19650714Y-12250000D01*
X19622143Y-12207143D01*
X19607857Y-12192857D01*
M02*
