%FSLAX45Y45*%
G04 Gerber Fmt 4.5, Leading zero omitted, Abs format (unit mm)*
G04 Created by KiCad (PCBNEW 5.0.2+dfsg1-1) date Thu Aug  5 15:22:21 2021*
%MOMM*%
%LPD*%
G01*
G04 APERTURE LIST*
%ADD10C,0.200000*%
%ADD11C,0.300000*%
G04 APERTURE END LIST*
D10*
X21590000Y-7620000D02*
X10160000Y-7620000D01*
X21590000Y-11430000D02*
X21590000Y-7620000D01*
X10160000Y-11430000D02*
X21590000Y-11430000D01*
X10160000Y-7620000D02*
X10160000Y-11430000D01*
D10*
X16105840Y-9068580D02*
X16145840Y-9108580D01*
X16145840Y-9068580D02*
X16105840Y-9108580D01*
X19434430Y-9505000D02*
X19474430Y-9545000D01*
X19474430Y-9505000D02*
X19434430Y-9545000D01*
X14249000Y-9525000D02*
G75*
G03X14249000Y-9525000I-25000J0D01*
G01*
X14503000Y-9525000D02*
G75*
G03X14503000Y-9525000I-25000J0D01*
G01*
X10943000Y-9137000D02*
X10943000Y-9227000D01*
X10898000Y-9182000D02*
X10988000Y-9182000D01*
X10863000Y-9217000D02*
X11023000Y-9217000D01*
X10863000Y-9147000D02*
X11023000Y-9147000D01*
X11023000Y-9217000D02*
G75*
G03X11023000Y-9147000I0J35000D01*
G01*
X10863000Y-9147000D02*
G75*
G03X10863000Y-9217000I0J-35000D01*
G01*
X10943000Y-10277000D02*
X10943000Y-10367000D01*
X10898000Y-10322000D02*
X10988000Y-10322000D01*
X10863000Y-10357000D02*
X11023000Y-10357000D01*
X10863000Y-10287000D02*
X11023000Y-10287000D01*
X11023000Y-10357000D02*
G75*
G03X11023000Y-10287000I0J35000D01*
G01*
X10863000Y-10287000D02*
G75*
G03X10863000Y-10357000I0J-35000D01*
G01*
D11*
X10436428Y-11905714D02*
X10436428Y-11605714D01*
X10507857Y-11605714D01*
X10550714Y-11620000D01*
X10579286Y-11648571D01*
X10593571Y-11677143D01*
X10607857Y-11734286D01*
X10607857Y-11777143D01*
X10593571Y-11834286D01*
X10579286Y-11862857D01*
X10550714Y-11891429D01*
X10507857Y-11905714D01*
X10436428Y-11905714D01*
X10736428Y-11905714D02*
X10736428Y-11705714D01*
X10736428Y-11762857D02*
X10750714Y-11734286D01*
X10765000Y-11720000D01*
X10793571Y-11705714D01*
X10822143Y-11705714D01*
X10922143Y-11905714D02*
X10922143Y-11705714D01*
X10922143Y-11605714D02*
X10907857Y-11620000D01*
X10922143Y-11634286D01*
X10936428Y-11620000D01*
X10922143Y-11605714D01*
X10922143Y-11634286D01*
X11107857Y-11905714D02*
X11079286Y-11891429D01*
X11065000Y-11862857D01*
X11065000Y-11605714D01*
X11265000Y-11905714D02*
X11236428Y-11891429D01*
X11222143Y-11862857D01*
X11222143Y-11605714D01*
X11607857Y-11905714D02*
X11607857Y-11605714D01*
X11707857Y-11820000D01*
X11807857Y-11605714D01*
X11807857Y-11905714D01*
X12079286Y-11905714D02*
X12079286Y-11748571D01*
X12065000Y-11720000D01*
X12036428Y-11705714D01*
X11979286Y-11705714D01*
X11950714Y-11720000D01*
X12079286Y-11891429D02*
X12050714Y-11905714D01*
X11979286Y-11905714D01*
X11950714Y-11891429D01*
X11936428Y-11862857D01*
X11936428Y-11834286D01*
X11950714Y-11805714D01*
X11979286Y-11791429D01*
X12050714Y-11791429D01*
X12079286Y-11777143D01*
X12222143Y-11705714D02*
X12222143Y-12005714D01*
X12222143Y-11720000D02*
X12250714Y-11705714D01*
X12307857Y-11705714D01*
X12336428Y-11720000D01*
X12350714Y-11734286D01*
X12365000Y-11762857D01*
X12365000Y-11848571D01*
X12350714Y-11877143D01*
X12336428Y-11891429D01*
X12307857Y-11905714D01*
X12250714Y-11905714D01*
X12222143Y-11891429D01*
X12493571Y-11877143D02*
X12507857Y-11891429D01*
X12493571Y-11905714D01*
X12479286Y-11891429D01*
X12493571Y-11877143D01*
X12493571Y-11905714D01*
X12493571Y-11720000D02*
X12507857Y-11734286D01*
X12493571Y-11748571D01*
X12479286Y-11734286D01*
X12493571Y-11720000D01*
X12493571Y-11748571D01*
X10110000Y-12380000D02*
X10150000Y-12420000D01*
X10150000Y-12380000D02*
X10110000Y-12420000D01*
X10493571Y-12235714D02*
X10522143Y-12235714D01*
X10550714Y-12250000D01*
X10565000Y-12264286D01*
X10579286Y-12292857D01*
X10593571Y-12350000D01*
X10593571Y-12421429D01*
X10579286Y-12478571D01*
X10565000Y-12507143D01*
X10550714Y-12521429D01*
X10522143Y-12535714D01*
X10493571Y-12535714D01*
X10465000Y-12521429D01*
X10450714Y-12507143D01*
X10436428Y-12478571D01*
X10422143Y-12421429D01*
X10422143Y-12350000D01*
X10436428Y-12292857D01*
X10450714Y-12264286D01*
X10465000Y-12250000D01*
X10493571Y-12235714D01*
X10722143Y-12507143D02*
X10736428Y-12521429D01*
X10722143Y-12535714D01*
X10707857Y-12521429D01*
X10722143Y-12507143D01*
X10722143Y-12535714D01*
X10993571Y-12335714D02*
X10993571Y-12535714D01*
X10922143Y-12221429D02*
X10850714Y-12435714D01*
X11036428Y-12435714D01*
X11207857Y-12235714D02*
X11236428Y-12235714D01*
X11265000Y-12250000D01*
X11279286Y-12264286D01*
X11293571Y-12292857D01*
X11307857Y-12350000D01*
X11307857Y-12421429D01*
X11293571Y-12478571D01*
X11279286Y-12507143D01*
X11265000Y-12521429D01*
X11236428Y-12535714D01*
X11207857Y-12535714D01*
X11179286Y-12521429D01*
X11165000Y-12507143D01*
X11150714Y-12478571D01*
X11136428Y-12421429D01*
X11136428Y-12350000D01*
X11150714Y-12292857D01*
X11165000Y-12264286D01*
X11179286Y-12250000D01*
X11207857Y-12235714D01*
X11436428Y-12535714D02*
X11436428Y-12335714D01*
X11436428Y-12364286D02*
X11450714Y-12350000D01*
X11479286Y-12335714D01*
X11522143Y-12335714D01*
X11550714Y-12350000D01*
X11565000Y-12378571D01*
X11565000Y-12535714D01*
X11565000Y-12378571D02*
X11579286Y-12350000D01*
X11607857Y-12335714D01*
X11650714Y-12335714D01*
X11679286Y-12350000D01*
X11693571Y-12378571D01*
X11693571Y-12535714D01*
X11836428Y-12535714D02*
X11836428Y-12335714D01*
X11836428Y-12364286D02*
X11850714Y-12350000D01*
X11879286Y-12335714D01*
X11922143Y-12335714D01*
X11950714Y-12350000D01*
X11965000Y-12378571D01*
X11965000Y-12535714D01*
X11965000Y-12378571D02*
X11979286Y-12350000D01*
X12007857Y-12335714D01*
X12050714Y-12335714D01*
X12079286Y-12350000D01*
X12093571Y-12378571D01*
X12093571Y-12535714D01*
X12679286Y-12221429D02*
X12422143Y-12607143D01*
X13065000Y-12235714D02*
X13093571Y-12235714D01*
X13122143Y-12250000D01*
X13136428Y-12264286D01*
X13150714Y-12292857D01*
X13165000Y-12350000D01*
X13165000Y-12421429D01*
X13150714Y-12478571D01*
X13136428Y-12507143D01*
X13122143Y-12521429D01*
X13093571Y-12535714D01*
X13065000Y-12535714D01*
X13036428Y-12521429D01*
X13022143Y-12507143D01*
X13007857Y-12478571D01*
X12993571Y-12421429D01*
X12993571Y-12350000D01*
X13007857Y-12292857D01*
X13022143Y-12264286D01*
X13036428Y-12250000D01*
X13065000Y-12235714D01*
X13293571Y-12507143D02*
X13307857Y-12521429D01*
X13293571Y-12535714D01*
X13279286Y-12521429D01*
X13293571Y-12507143D01*
X13293571Y-12535714D01*
X13493571Y-12235714D02*
X13522143Y-12235714D01*
X13550714Y-12250000D01*
X13565000Y-12264286D01*
X13579286Y-12292857D01*
X13593571Y-12350000D01*
X13593571Y-12421429D01*
X13579286Y-12478571D01*
X13565000Y-12507143D01*
X13550714Y-12521429D01*
X13522143Y-12535714D01*
X13493571Y-12535714D01*
X13465000Y-12521429D01*
X13450714Y-12507143D01*
X13436428Y-12478571D01*
X13422143Y-12421429D01*
X13422143Y-12350000D01*
X13436428Y-12292857D01*
X13450714Y-12264286D01*
X13465000Y-12250000D01*
X13493571Y-12235714D01*
X13879286Y-12535714D02*
X13707857Y-12535714D01*
X13793571Y-12535714D02*
X13793571Y-12235714D01*
X13765000Y-12278571D01*
X13736428Y-12307143D01*
X13707857Y-12321429D01*
X14136428Y-12235714D02*
X14079286Y-12235714D01*
X14050714Y-12250000D01*
X14036428Y-12264286D01*
X14007857Y-12307143D01*
X13993571Y-12364286D01*
X13993571Y-12478571D01*
X14007857Y-12507143D01*
X14022143Y-12521429D01*
X14050714Y-12535714D01*
X14107857Y-12535714D01*
X14136428Y-12521429D01*
X14150714Y-12507143D01*
X14165000Y-12478571D01*
X14165000Y-12407143D01*
X14150714Y-12378571D01*
X14136428Y-12364286D01*
X14107857Y-12350000D01*
X14050714Y-12350000D01*
X14022143Y-12364286D01*
X14007857Y-12378571D01*
X13993571Y-12407143D01*
X14279286Y-12235714D02*
X14279286Y-12292857D01*
X14393571Y-12235714D02*
X14393571Y-12292857D01*
X14836428Y-12650000D02*
X14822143Y-12635714D01*
X14793571Y-12592857D01*
X14779286Y-12564286D01*
X14765000Y-12521429D01*
X14750714Y-12450000D01*
X14750714Y-12392857D01*
X14765000Y-12321429D01*
X14779286Y-12278571D01*
X14793571Y-12250000D01*
X14822143Y-12207143D01*
X14836428Y-12192857D01*
X14936428Y-12264286D02*
X14950714Y-12250000D01*
X14979286Y-12235714D01*
X15050714Y-12235714D01*
X15079286Y-12250000D01*
X15093571Y-12264286D01*
X15107857Y-12292857D01*
X15107857Y-12321429D01*
X15093571Y-12364286D01*
X14922143Y-12535714D01*
X15107857Y-12535714D01*
X15465000Y-12535714D02*
X15465000Y-12235714D01*
X15593571Y-12535714D02*
X15593571Y-12378571D01*
X15579286Y-12350000D01*
X15550714Y-12335714D01*
X15507857Y-12335714D01*
X15479286Y-12350000D01*
X15465000Y-12364286D01*
X15779286Y-12535714D02*
X15750714Y-12521429D01*
X15736428Y-12507143D01*
X15722143Y-12478571D01*
X15722143Y-12392857D01*
X15736428Y-12364286D01*
X15750714Y-12350000D01*
X15779286Y-12335714D01*
X15822143Y-12335714D01*
X15850714Y-12350000D01*
X15865000Y-12364286D01*
X15879286Y-12392857D01*
X15879286Y-12478571D01*
X15865000Y-12507143D01*
X15850714Y-12521429D01*
X15822143Y-12535714D01*
X15779286Y-12535714D01*
X16050714Y-12535714D02*
X16022143Y-12521429D01*
X16007857Y-12492857D01*
X16007857Y-12235714D01*
X16279286Y-12521429D02*
X16250714Y-12535714D01*
X16193571Y-12535714D01*
X16165000Y-12521429D01*
X16150714Y-12492857D01*
X16150714Y-12378571D01*
X16165000Y-12350000D01*
X16193571Y-12335714D01*
X16250714Y-12335714D01*
X16279286Y-12350000D01*
X16293571Y-12378571D01*
X16293571Y-12407143D01*
X16150714Y-12435714D01*
X16407857Y-12521429D02*
X16436428Y-12535714D01*
X16493571Y-12535714D01*
X16522143Y-12521429D01*
X16536428Y-12492857D01*
X16536428Y-12478571D01*
X16522143Y-12450000D01*
X16493571Y-12435714D01*
X16450714Y-12435714D01*
X16422143Y-12421429D01*
X16407857Y-12392857D01*
X16407857Y-12378571D01*
X16422143Y-12350000D01*
X16450714Y-12335714D01*
X16493571Y-12335714D01*
X16522143Y-12350000D01*
X16636428Y-12650000D02*
X16650714Y-12635714D01*
X16679286Y-12592857D01*
X16693571Y-12564286D01*
X16707857Y-12521429D01*
X16722143Y-12450000D01*
X16722143Y-12392857D01*
X16707857Y-12321429D01*
X16693571Y-12278571D01*
X16679286Y-12250000D01*
X16650714Y-12207143D01*
X16636428Y-12192857D01*
X10150000Y-12796000D02*
G75*
G03X10150000Y-12796000I-25000J0D01*
G01*
X10493571Y-12631714D02*
X10522143Y-12631714D01*
X10550714Y-12646000D01*
X10565000Y-12660286D01*
X10579286Y-12688857D01*
X10593571Y-12746000D01*
X10593571Y-12817429D01*
X10579286Y-12874571D01*
X10565000Y-12903143D01*
X10550714Y-12917429D01*
X10522143Y-12931714D01*
X10493571Y-12931714D01*
X10465000Y-12917429D01*
X10450714Y-12903143D01*
X10436428Y-12874571D01*
X10422143Y-12817429D01*
X10422143Y-12746000D01*
X10436428Y-12688857D01*
X10450714Y-12660286D01*
X10465000Y-12646000D01*
X10493571Y-12631714D01*
X10722143Y-12903143D02*
X10736428Y-12917429D01*
X10722143Y-12931714D01*
X10707857Y-12917429D01*
X10722143Y-12903143D01*
X10722143Y-12931714D01*
X11007857Y-12631714D02*
X10865000Y-12631714D01*
X10850714Y-12774571D01*
X10865000Y-12760286D01*
X10893571Y-12746000D01*
X10965000Y-12746000D01*
X10993571Y-12760286D01*
X11007857Y-12774571D01*
X11022143Y-12803143D01*
X11022143Y-12874571D01*
X11007857Y-12903143D01*
X10993571Y-12917429D01*
X10965000Y-12931714D01*
X10893571Y-12931714D01*
X10865000Y-12917429D01*
X10850714Y-12903143D01*
X11207857Y-12631714D02*
X11236428Y-12631714D01*
X11265000Y-12646000D01*
X11279286Y-12660286D01*
X11293571Y-12688857D01*
X11307857Y-12746000D01*
X11307857Y-12817429D01*
X11293571Y-12874571D01*
X11279286Y-12903143D01*
X11265000Y-12917429D01*
X11236428Y-12931714D01*
X11207857Y-12931714D01*
X11179286Y-12917429D01*
X11165000Y-12903143D01*
X11150714Y-12874571D01*
X11136428Y-12817429D01*
X11136428Y-12746000D01*
X11150714Y-12688857D01*
X11165000Y-12660286D01*
X11179286Y-12646000D01*
X11207857Y-12631714D01*
X11436428Y-12931714D02*
X11436428Y-12731714D01*
X11436428Y-12760286D02*
X11450714Y-12746000D01*
X11479286Y-12731714D01*
X11522143Y-12731714D01*
X11550714Y-12746000D01*
X11565000Y-12774571D01*
X11565000Y-12931714D01*
X11565000Y-12774571D02*
X11579286Y-12746000D01*
X11607857Y-12731714D01*
X11650714Y-12731714D01*
X11679286Y-12746000D01*
X11693571Y-12774571D01*
X11693571Y-12931714D01*
X11836428Y-12931714D02*
X11836428Y-12731714D01*
X11836428Y-12760286D02*
X11850714Y-12746000D01*
X11879286Y-12731714D01*
X11922143Y-12731714D01*
X11950714Y-12746000D01*
X11965000Y-12774571D01*
X11965000Y-12931714D01*
X11965000Y-12774571D02*
X11979286Y-12746000D01*
X12007857Y-12731714D01*
X12050714Y-12731714D01*
X12079286Y-12746000D01*
X12093571Y-12774571D01*
X12093571Y-12931714D01*
X12679286Y-12617429D02*
X12422143Y-13003143D01*
X13065000Y-12631714D02*
X13093571Y-12631714D01*
X13122143Y-12646000D01*
X13136428Y-12660286D01*
X13150714Y-12688857D01*
X13165000Y-12746000D01*
X13165000Y-12817429D01*
X13150714Y-12874571D01*
X13136428Y-12903143D01*
X13122143Y-12917429D01*
X13093571Y-12931714D01*
X13065000Y-12931714D01*
X13036428Y-12917429D01*
X13022143Y-12903143D01*
X13007857Y-12874571D01*
X12993571Y-12817429D01*
X12993571Y-12746000D01*
X13007857Y-12688857D01*
X13022143Y-12660286D01*
X13036428Y-12646000D01*
X13065000Y-12631714D01*
X13293571Y-12903143D02*
X13307857Y-12917429D01*
X13293571Y-12931714D01*
X13279286Y-12917429D01*
X13293571Y-12903143D01*
X13293571Y-12931714D01*
X13493571Y-12631714D02*
X13522143Y-12631714D01*
X13550714Y-12646000D01*
X13565000Y-12660286D01*
X13579286Y-12688857D01*
X13593571Y-12746000D01*
X13593571Y-12817429D01*
X13579286Y-12874571D01*
X13565000Y-12903143D01*
X13550714Y-12917429D01*
X13522143Y-12931714D01*
X13493571Y-12931714D01*
X13465000Y-12917429D01*
X13450714Y-12903143D01*
X13436428Y-12874571D01*
X13422143Y-12817429D01*
X13422143Y-12746000D01*
X13436428Y-12688857D01*
X13450714Y-12660286D01*
X13465000Y-12646000D01*
X13493571Y-12631714D01*
X13707857Y-12660286D02*
X13722143Y-12646000D01*
X13750714Y-12631714D01*
X13822143Y-12631714D01*
X13850714Y-12646000D01*
X13865000Y-12660286D01*
X13879286Y-12688857D01*
X13879286Y-12717429D01*
X13865000Y-12760286D01*
X13693571Y-12931714D01*
X13879286Y-12931714D01*
X14065000Y-12631714D02*
X14093571Y-12631714D01*
X14122143Y-12646000D01*
X14136428Y-12660286D01*
X14150714Y-12688857D01*
X14165000Y-12746000D01*
X14165000Y-12817429D01*
X14150714Y-12874571D01*
X14136428Y-12903143D01*
X14122143Y-12917429D01*
X14093571Y-12931714D01*
X14065000Y-12931714D01*
X14036428Y-12917429D01*
X14022143Y-12903143D01*
X14007857Y-12874571D01*
X13993571Y-12817429D01*
X13993571Y-12746000D01*
X14007857Y-12688857D01*
X14022143Y-12660286D01*
X14036428Y-12646000D01*
X14065000Y-12631714D01*
X14279286Y-12631714D02*
X14279286Y-12688857D01*
X14393571Y-12631714D02*
X14393571Y-12688857D01*
X14836428Y-13046000D02*
X14822143Y-13031714D01*
X14793571Y-12988857D01*
X14779286Y-12960286D01*
X14765000Y-12917429D01*
X14750714Y-12846000D01*
X14750714Y-12788857D01*
X14765000Y-12717429D01*
X14779286Y-12674571D01*
X14793571Y-12646000D01*
X14822143Y-12603143D01*
X14836428Y-12588857D01*
X14936428Y-12660286D02*
X14950714Y-12646000D01*
X14979286Y-12631714D01*
X15050714Y-12631714D01*
X15079286Y-12646000D01*
X15093571Y-12660286D01*
X15107857Y-12688857D01*
X15107857Y-12717429D01*
X15093571Y-12760286D01*
X14922143Y-12931714D01*
X15107857Y-12931714D01*
X15465000Y-12931714D02*
X15465000Y-12631714D01*
X15593571Y-12931714D02*
X15593571Y-12774571D01*
X15579286Y-12746000D01*
X15550714Y-12731714D01*
X15507857Y-12731714D01*
X15479286Y-12746000D01*
X15465000Y-12760286D01*
X15779286Y-12931714D02*
X15750714Y-12917429D01*
X15736428Y-12903143D01*
X15722143Y-12874571D01*
X15722143Y-12788857D01*
X15736428Y-12760286D01*
X15750714Y-12746000D01*
X15779286Y-12731714D01*
X15822143Y-12731714D01*
X15850714Y-12746000D01*
X15865000Y-12760286D01*
X15879286Y-12788857D01*
X15879286Y-12874571D01*
X15865000Y-12903143D01*
X15850714Y-12917429D01*
X15822143Y-12931714D01*
X15779286Y-12931714D01*
X16050714Y-12931714D02*
X16022143Y-12917429D01*
X16007857Y-12888857D01*
X16007857Y-12631714D01*
X16279286Y-12917429D02*
X16250714Y-12931714D01*
X16193571Y-12931714D01*
X16165000Y-12917429D01*
X16150714Y-12888857D01*
X16150714Y-12774571D01*
X16165000Y-12746000D01*
X16193571Y-12731714D01*
X16250714Y-12731714D01*
X16279286Y-12746000D01*
X16293571Y-12774571D01*
X16293571Y-12803143D01*
X16150714Y-12831714D01*
X16407857Y-12917429D02*
X16436428Y-12931714D01*
X16493571Y-12931714D01*
X16522143Y-12917429D01*
X16536428Y-12888857D01*
X16536428Y-12874571D01*
X16522143Y-12846000D01*
X16493571Y-12831714D01*
X16450714Y-12831714D01*
X16422143Y-12817429D01*
X16407857Y-12788857D01*
X16407857Y-12774571D01*
X16422143Y-12746000D01*
X16450714Y-12731714D01*
X16493571Y-12731714D01*
X16522143Y-12746000D01*
X16636428Y-13046000D02*
X16650714Y-13031714D01*
X16679286Y-12988857D01*
X16693571Y-12960286D01*
X16707857Y-12917429D01*
X16722143Y-12846000D01*
X16722143Y-12788857D01*
X16707857Y-12717429D01*
X16693571Y-12674571D01*
X16679286Y-12646000D01*
X16650714Y-12603143D01*
X16636428Y-12588857D01*
X10105000Y-13147000D02*
X10105000Y-13237000D01*
X10060000Y-13192000D02*
X10150000Y-13192000D01*
X10493571Y-13027714D02*
X10522143Y-13027714D01*
X10550714Y-13042000D01*
X10565000Y-13056286D01*
X10579286Y-13084857D01*
X10593571Y-13142000D01*
X10593571Y-13213429D01*
X10579286Y-13270571D01*
X10565000Y-13299143D01*
X10550714Y-13313429D01*
X10522143Y-13327714D01*
X10493571Y-13327714D01*
X10465000Y-13313429D01*
X10450714Y-13299143D01*
X10436428Y-13270571D01*
X10422143Y-13213429D01*
X10422143Y-13142000D01*
X10436428Y-13084857D01*
X10450714Y-13056286D01*
X10465000Y-13042000D01*
X10493571Y-13027714D01*
X10722143Y-13299143D02*
X10736428Y-13313429D01*
X10722143Y-13327714D01*
X10707857Y-13313429D01*
X10722143Y-13299143D01*
X10722143Y-13327714D01*
X10879286Y-13327714D02*
X10936428Y-13327714D01*
X10965000Y-13313429D01*
X10979286Y-13299143D01*
X11007857Y-13256286D01*
X11022143Y-13199143D01*
X11022143Y-13084857D01*
X11007857Y-13056286D01*
X10993571Y-13042000D01*
X10965000Y-13027714D01*
X10907857Y-13027714D01*
X10879286Y-13042000D01*
X10865000Y-13056286D01*
X10850714Y-13084857D01*
X10850714Y-13156286D01*
X10865000Y-13184857D01*
X10879286Y-13199143D01*
X10907857Y-13213429D01*
X10965000Y-13213429D01*
X10993571Y-13199143D01*
X11007857Y-13184857D01*
X11022143Y-13156286D01*
X11207857Y-13027714D02*
X11236428Y-13027714D01*
X11265000Y-13042000D01*
X11279286Y-13056286D01*
X11293571Y-13084857D01*
X11307857Y-13142000D01*
X11307857Y-13213429D01*
X11293571Y-13270571D01*
X11279286Y-13299143D01*
X11265000Y-13313429D01*
X11236428Y-13327714D01*
X11207857Y-13327714D01*
X11179286Y-13313429D01*
X11165000Y-13299143D01*
X11150714Y-13270571D01*
X11136428Y-13213429D01*
X11136428Y-13142000D01*
X11150714Y-13084857D01*
X11165000Y-13056286D01*
X11179286Y-13042000D01*
X11207857Y-13027714D01*
X11436428Y-13327714D02*
X11436428Y-13127714D01*
X11436428Y-13156286D02*
X11450714Y-13142000D01*
X11479286Y-13127714D01*
X11522143Y-13127714D01*
X11550714Y-13142000D01*
X11565000Y-13170571D01*
X11565000Y-13327714D01*
X11565000Y-13170571D02*
X11579286Y-13142000D01*
X11607857Y-13127714D01*
X11650714Y-13127714D01*
X11679286Y-13142000D01*
X11693571Y-13170571D01*
X11693571Y-13327714D01*
X11836428Y-13327714D02*
X11836428Y-13127714D01*
X11836428Y-13156286D02*
X11850714Y-13142000D01*
X11879286Y-13127714D01*
X11922143Y-13127714D01*
X11950714Y-13142000D01*
X11965000Y-13170571D01*
X11965000Y-13327714D01*
X11965000Y-13170571D02*
X11979286Y-13142000D01*
X12007857Y-13127714D01*
X12050714Y-13127714D01*
X12079286Y-13142000D01*
X12093571Y-13170571D01*
X12093571Y-13327714D01*
X12679286Y-13013429D02*
X12422143Y-13399143D01*
X13065000Y-13027714D02*
X13093571Y-13027714D01*
X13122143Y-13042000D01*
X13136428Y-13056286D01*
X13150714Y-13084857D01*
X13165000Y-13142000D01*
X13165000Y-13213429D01*
X13150714Y-13270571D01*
X13136428Y-13299143D01*
X13122143Y-13313429D01*
X13093571Y-13327714D01*
X13065000Y-13327714D01*
X13036428Y-13313429D01*
X13022143Y-13299143D01*
X13007857Y-13270571D01*
X12993571Y-13213429D01*
X12993571Y-13142000D01*
X13007857Y-13084857D01*
X13022143Y-13056286D01*
X13036428Y-13042000D01*
X13065000Y-13027714D01*
X13293571Y-13299143D02*
X13307857Y-13313429D01*
X13293571Y-13327714D01*
X13279286Y-13313429D01*
X13293571Y-13299143D01*
X13293571Y-13327714D01*
X13493571Y-13027714D02*
X13522143Y-13027714D01*
X13550714Y-13042000D01*
X13565000Y-13056286D01*
X13579286Y-13084857D01*
X13593571Y-13142000D01*
X13593571Y-13213429D01*
X13579286Y-13270571D01*
X13565000Y-13299143D01*
X13550714Y-13313429D01*
X13522143Y-13327714D01*
X13493571Y-13327714D01*
X13465000Y-13313429D01*
X13450714Y-13299143D01*
X13436428Y-13270571D01*
X13422143Y-13213429D01*
X13422143Y-13142000D01*
X13436428Y-13084857D01*
X13450714Y-13056286D01*
X13465000Y-13042000D01*
X13493571Y-13027714D01*
X13693571Y-13027714D02*
X13879286Y-13027714D01*
X13779286Y-13142000D01*
X13822143Y-13142000D01*
X13850714Y-13156286D01*
X13865000Y-13170571D01*
X13879286Y-13199143D01*
X13879286Y-13270571D01*
X13865000Y-13299143D01*
X13850714Y-13313429D01*
X13822143Y-13327714D01*
X13736428Y-13327714D01*
X13707857Y-13313429D01*
X13693571Y-13299143D01*
X14150714Y-13027714D02*
X14007857Y-13027714D01*
X13993571Y-13170571D01*
X14007857Y-13156286D01*
X14036428Y-13142000D01*
X14107857Y-13142000D01*
X14136428Y-13156286D01*
X14150714Y-13170571D01*
X14165000Y-13199143D01*
X14165000Y-13270571D01*
X14150714Y-13299143D01*
X14136428Y-13313429D01*
X14107857Y-13327714D01*
X14036428Y-13327714D01*
X14007857Y-13313429D01*
X13993571Y-13299143D01*
X14279286Y-13027714D02*
X14279286Y-13084857D01*
X14393571Y-13027714D02*
X14393571Y-13084857D01*
X14836428Y-13442000D02*
X14822143Y-13427714D01*
X14793571Y-13384857D01*
X14779286Y-13356286D01*
X14765000Y-13313429D01*
X14750714Y-13242000D01*
X14750714Y-13184857D01*
X14765000Y-13113429D01*
X14779286Y-13070571D01*
X14793571Y-13042000D01*
X14822143Y-12999143D01*
X14836428Y-12984857D01*
X15007857Y-13027714D02*
X15036428Y-13027714D01*
X15065000Y-13042000D01*
X15079286Y-13056286D01*
X15093571Y-13084857D01*
X15107857Y-13142000D01*
X15107857Y-13213429D01*
X15093571Y-13270571D01*
X15079286Y-13299143D01*
X15065000Y-13313429D01*
X15036428Y-13327714D01*
X15007857Y-13327714D01*
X14979286Y-13313429D01*
X14965000Y-13299143D01*
X14950714Y-13270571D01*
X14936428Y-13213429D01*
X14936428Y-13142000D01*
X14950714Y-13084857D01*
X14965000Y-13056286D01*
X14979286Y-13042000D01*
X15007857Y-13027714D01*
X15465000Y-13327714D02*
X15465000Y-13027714D01*
X15593571Y-13327714D02*
X15593571Y-13170571D01*
X15579286Y-13142000D01*
X15550714Y-13127714D01*
X15507857Y-13127714D01*
X15479286Y-13142000D01*
X15465000Y-13156286D01*
X15779286Y-13327714D02*
X15750714Y-13313429D01*
X15736428Y-13299143D01*
X15722143Y-13270571D01*
X15722143Y-13184857D01*
X15736428Y-13156286D01*
X15750714Y-13142000D01*
X15779286Y-13127714D01*
X15822143Y-13127714D01*
X15850714Y-13142000D01*
X15865000Y-13156286D01*
X15879286Y-13184857D01*
X15879286Y-13270571D01*
X15865000Y-13299143D01*
X15850714Y-13313429D01*
X15822143Y-13327714D01*
X15779286Y-13327714D01*
X16050714Y-13327714D02*
X16022143Y-13313429D01*
X16007857Y-13284857D01*
X16007857Y-13027714D01*
X16279286Y-13313429D02*
X16250714Y-13327714D01*
X16193571Y-13327714D01*
X16165000Y-13313429D01*
X16150714Y-13284857D01*
X16150714Y-13170571D01*
X16165000Y-13142000D01*
X16193571Y-13127714D01*
X16250714Y-13127714D01*
X16279286Y-13142000D01*
X16293571Y-13170571D01*
X16293571Y-13199143D01*
X16150714Y-13227714D01*
X16407857Y-13313429D02*
X16436428Y-13327714D01*
X16493571Y-13327714D01*
X16522143Y-13313429D01*
X16536428Y-13284857D01*
X16536428Y-13270571D01*
X16522143Y-13242000D01*
X16493571Y-13227714D01*
X16450714Y-13227714D01*
X16422143Y-13213429D01*
X16407857Y-13184857D01*
X16407857Y-13170571D01*
X16422143Y-13142000D01*
X16450714Y-13127714D01*
X16493571Y-13127714D01*
X16522143Y-13142000D01*
X16893571Y-13213429D02*
X17122143Y-13213429D01*
X17007857Y-13327714D02*
X17007857Y-13099143D01*
X17479286Y-13056286D02*
X17493571Y-13042000D01*
X17522143Y-13027714D01*
X17593571Y-13027714D01*
X17622143Y-13042000D01*
X17636428Y-13056286D01*
X17650714Y-13084857D01*
X17650714Y-13113429D01*
X17636428Y-13156286D01*
X17465000Y-13327714D01*
X17650714Y-13327714D01*
X17993571Y-13313429D02*
X18022143Y-13327714D01*
X18079286Y-13327714D01*
X18107857Y-13313429D01*
X18122143Y-13284857D01*
X18122143Y-13270571D01*
X18107857Y-13242000D01*
X18079286Y-13227714D01*
X18036428Y-13227714D01*
X18007857Y-13213429D01*
X17993571Y-13184857D01*
X17993571Y-13170571D01*
X18007857Y-13142000D01*
X18036428Y-13127714D01*
X18079286Y-13127714D01*
X18107857Y-13142000D01*
X18293571Y-13327714D02*
X18265000Y-13313429D01*
X18250714Y-13284857D01*
X18250714Y-13027714D01*
X18450714Y-13327714D02*
X18422143Y-13313429D01*
X18407857Y-13299143D01*
X18393571Y-13270571D01*
X18393571Y-13184857D01*
X18407857Y-13156286D01*
X18422143Y-13142000D01*
X18450714Y-13127714D01*
X18493571Y-13127714D01*
X18522143Y-13142000D01*
X18536428Y-13156286D01*
X18550714Y-13184857D01*
X18550714Y-13270571D01*
X18536428Y-13299143D01*
X18522143Y-13313429D01*
X18493571Y-13327714D01*
X18450714Y-13327714D01*
X18636428Y-13127714D02*
X18750714Y-13127714D01*
X18679286Y-13027714D02*
X18679286Y-13284857D01*
X18693571Y-13313429D01*
X18722143Y-13327714D01*
X18750714Y-13327714D01*
X18836428Y-13313429D02*
X18865000Y-13327714D01*
X18922143Y-13327714D01*
X18950714Y-13313429D01*
X18965000Y-13284857D01*
X18965000Y-13270571D01*
X18950714Y-13242000D01*
X18922143Y-13227714D01*
X18879286Y-13227714D01*
X18850714Y-13213429D01*
X18836428Y-13184857D01*
X18836428Y-13170571D01*
X18850714Y-13142000D01*
X18879286Y-13127714D01*
X18922143Y-13127714D01*
X18950714Y-13142000D01*
X19065000Y-13442000D02*
X19079286Y-13427714D01*
X19107857Y-13384857D01*
X19122143Y-13356286D01*
X19136428Y-13313429D01*
X19150714Y-13242000D01*
X19150714Y-13184857D01*
X19136428Y-13113429D01*
X19122143Y-13070571D01*
X19107857Y-13042000D01*
X19079286Y-12999143D01*
X19065000Y-12984857D01*
M02*
