G04 #@! TF.GenerationSoftware,KiCad,Pcbnew,5.0.2+dfsg1-1*
G04 #@! TF.CreationDate,2021-08-05T15:20:41-03:00*
G04 #@! TF.ProjectId,universerial,756e6976-6572-4736-9572-69616c2e6b69,rev?*
G04 #@! TF.SameCoordinates,Original*
G04 #@! TF.FileFunction,Soldermask,Bot*
G04 #@! TF.FilePolarity,Negative*
%FSLAX46Y46*%
G04 Gerber Fmt 4.6, Leading zero omitted, Abs format (unit mm)*
G04 Created by KiCad (PCBNEW 5.0.2+dfsg1-1) date Thu Aug  5 15:20:41 2021*
%MOMM*%
%LPD*%
G01*
G04 APERTURE LIST*
%ADD10C,0.100000*%
G04 APERTURE END LIST*
D10*
G36*
X110426232Y-102233483D02*
X110614919Y-102290721D01*
X110788817Y-102383671D01*
X110941239Y-102508761D01*
X111066329Y-102661183D01*
X111159279Y-102835081D01*
X111216517Y-103023768D01*
X111235843Y-103220000D01*
X111216517Y-103416232D01*
X111159279Y-103604919D01*
X111066329Y-103778817D01*
X110941239Y-103931239D01*
X110788817Y-104056329D01*
X110614919Y-104149279D01*
X110426232Y-104206517D01*
X110279176Y-104221000D01*
X108580824Y-104221000D01*
X108433768Y-104206517D01*
X108245081Y-104149279D01*
X108071183Y-104056329D01*
X107918761Y-103931239D01*
X107793671Y-103778817D01*
X107700721Y-103604919D01*
X107643483Y-103416232D01*
X107624157Y-103220000D01*
X107643483Y-103023768D01*
X107700721Y-102835081D01*
X107793671Y-102661183D01*
X107918761Y-102508761D01*
X108071183Y-102383671D01*
X108245081Y-102290721D01*
X108433768Y-102233483D01*
X108580824Y-102219000D01*
X110279176Y-102219000D01*
X110426232Y-102233483D01*
X110426232Y-102233483D01*
G37*
G36*
X109605305Y-99242096D02*
X109714680Y-99287400D01*
X109813118Y-99353175D01*
X109896825Y-99436882D01*
X109962600Y-99535320D01*
X110007904Y-99644695D01*
X110031000Y-99760806D01*
X110031000Y-99879194D01*
X110007904Y-99995305D01*
X109962600Y-100104680D01*
X109896825Y-100203118D01*
X109813118Y-100286825D01*
X109714680Y-100352600D01*
X109605305Y-100397904D01*
X109489194Y-100421000D01*
X109370806Y-100421000D01*
X109254695Y-100397904D01*
X109145320Y-100352600D01*
X109046882Y-100286825D01*
X108963175Y-100203118D01*
X108897400Y-100104680D01*
X108852096Y-99995305D01*
X108829000Y-99879194D01*
X108829000Y-99760806D01*
X108852096Y-99644695D01*
X108897400Y-99535320D01*
X108963175Y-99436882D01*
X109046882Y-99353175D01*
X109145320Y-99287400D01*
X109254695Y-99242096D01*
X109370806Y-99219000D01*
X109489194Y-99219000D01*
X109605305Y-99242096D01*
X109605305Y-99242096D01*
G37*
G36*
X109605305Y-94642096D02*
X109714680Y-94687400D01*
X109813118Y-94753175D01*
X109896825Y-94836882D01*
X109962600Y-94935320D01*
X110007904Y-95044695D01*
X110031000Y-95160806D01*
X110031000Y-95279194D01*
X110007904Y-95395305D01*
X109962600Y-95504680D01*
X109896825Y-95603118D01*
X109813118Y-95686825D01*
X109714680Y-95752600D01*
X109605305Y-95797904D01*
X109489194Y-95821000D01*
X109370806Y-95821000D01*
X109254695Y-95797904D01*
X109145320Y-95752600D01*
X109046882Y-95686825D01*
X108963175Y-95603118D01*
X108897400Y-95504680D01*
X108852096Y-95395305D01*
X108829000Y-95279194D01*
X108829000Y-95160806D01*
X108852096Y-95044695D01*
X108897400Y-94935320D01*
X108963175Y-94836882D01*
X109046882Y-94753175D01*
X109145320Y-94687400D01*
X109254695Y-94642096D01*
X109370806Y-94619000D01*
X109489194Y-94619000D01*
X109605305Y-94642096D01*
X109605305Y-94642096D01*
G37*
G36*
X144940721Y-94720174D02*
X145040995Y-94761709D01*
X145131245Y-94822012D01*
X145207988Y-94898755D01*
X145268291Y-94989005D01*
X145309826Y-95089279D01*
X145331000Y-95195730D01*
X145331000Y-95304270D01*
X145309826Y-95410721D01*
X145268291Y-95510995D01*
X145207988Y-95601245D01*
X145131245Y-95677988D01*
X145040995Y-95738291D01*
X144940721Y-95779826D01*
X144834270Y-95801000D01*
X144725730Y-95801000D01*
X144619279Y-95779826D01*
X144519005Y-95738291D01*
X144428755Y-95677988D01*
X144352012Y-95601245D01*
X144291709Y-95510995D01*
X144250174Y-95410721D01*
X144229000Y-95304270D01*
X144229000Y-95195730D01*
X144250174Y-95089279D01*
X144291709Y-94989005D01*
X144352012Y-94898755D01*
X144428755Y-94822012D01*
X144519005Y-94761709D01*
X144619279Y-94720174D01*
X144725730Y-94699000D01*
X144834270Y-94699000D01*
X144940721Y-94720174D01*
X144940721Y-94720174D01*
G37*
G36*
X142400721Y-94720174D02*
X142500995Y-94761709D01*
X142591245Y-94822012D01*
X142667988Y-94898755D01*
X142728291Y-94989005D01*
X142769826Y-95089279D01*
X142791000Y-95195730D01*
X142791000Y-95304270D01*
X142769826Y-95410721D01*
X142728291Y-95510995D01*
X142667988Y-95601245D01*
X142591245Y-95677988D01*
X142500995Y-95738291D01*
X142400721Y-95779826D01*
X142294270Y-95801000D01*
X142185730Y-95801000D01*
X142079279Y-95779826D01*
X141979005Y-95738291D01*
X141888755Y-95677988D01*
X141812012Y-95601245D01*
X141751709Y-95510995D01*
X141710174Y-95410721D01*
X141689000Y-95304270D01*
X141689000Y-95195730D01*
X141710174Y-95089279D01*
X141751709Y-94989005D01*
X141812012Y-94898755D01*
X141888755Y-94822012D01*
X141979005Y-94761709D01*
X142079279Y-94720174D01*
X142185730Y-94699000D01*
X142294270Y-94699000D01*
X142400721Y-94720174D01*
X142400721Y-94720174D01*
G37*
G36*
X110426232Y-90833483D02*
X110614919Y-90890721D01*
X110788817Y-90983671D01*
X110941239Y-91108761D01*
X111066329Y-91261183D01*
X111159279Y-91435081D01*
X111216517Y-91623768D01*
X111235843Y-91820000D01*
X111216517Y-92016232D01*
X111159279Y-92204919D01*
X111066329Y-92378817D01*
X110941239Y-92531239D01*
X110788817Y-92656329D01*
X110614919Y-92749279D01*
X110426232Y-92806517D01*
X110279176Y-92821000D01*
X108580824Y-92821000D01*
X108433768Y-92806517D01*
X108245081Y-92749279D01*
X108071183Y-92656329D01*
X107918761Y-92531239D01*
X107793671Y-92378817D01*
X107700721Y-92204919D01*
X107643483Y-92016232D01*
X107624157Y-91820000D01*
X107643483Y-91623768D01*
X107700721Y-91435081D01*
X107793671Y-91261183D01*
X107918761Y-91108761D01*
X108071183Y-90983671D01*
X108245081Y-90890721D01*
X108433768Y-90833483D01*
X108580824Y-90819000D01*
X110279176Y-90819000D01*
X110426232Y-90833483D01*
X110426232Y-90833483D01*
G37*
M02*
