G04 #@! TF.GenerationSoftware,KiCad,Pcbnew,5.0.2+dfsg1-1*
G04 #@! TF.CreationDate,2021-08-05T15:20:41-03:00*
G04 #@! TF.ProjectId,universerial,756e6976-6572-4736-9572-69616c2e6b69,rev?*
G04 #@! TF.SameCoordinates,Original*
G04 #@! TF.FileFunction,Soldermask,Top*
G04 #@! TF.FilePolarity,Negative*
%FSLAX46Y46*%
G04 Gerber Fmt 4.6, Leading zero omitted, Abs format (unit mm)*
G04 Created by KiCad (PCBNEW 5.0.2+dfsg1-1) date Thu Aug  5 15:20:41 2021*
%MOMM*%
%LPD*%
G01*
G04 APERTURE LIST*
%ADD10C,0.100000*%
G04 APERTURE END LIST*
D10*
G36*
X158340170Y-108970803D02*
X158351875Y-108974354D01*
X158371076Y-108984617D01*
X158393715Y-108993994D01*
X158417749Y-108998774D01*
X158442253Y-108998774D01*
X158466286Y-108993993D01*
X158488924Y-108984617D01*
X158508125Y-108974354D01*
X158519830Y-108970803D01*
X158538138Y-108969000D01*
X158961862Y-108969000D01*
X158980170Y-108970803D01*
X158991879Y-108974355D01*
X159002662Y-108980119D01*
X159012120Y-108987880D01*
X159019881Y-108997338D01*
X159025645Y-109008121D01*
X159029197Y-109019830D01*
X159031000Y-109038138D01*
X159031000Y-109401862D01*
X159029197Y-109420170D01*
X159025645Y-109431879D01*
X159019881Y-109442662D01*
X159012120Y-109452120D01*
X159002662Y-109459881D01*
X158991879Y-109465645D01*
X158980170Y-109469197D01*
X158961862Y-109471000D01*
X158538138Y-109471000D01*
X158519830Y-109469197D01*
X158508125Y-109465646D01*
X158488924Y-109455383D01*
X158466285Y-109446006D01*
X158442251Y-109441226D01*
X158417747Y-109441226D01*
X158393714Y-109446007D01*
X158371076Y-109455383D01*
X158351875Y-109465646D01*
X158340170Y-109469197D01*
X158321862Y-109471000D01*
X157898138Y-109471000D01*
X157879830Y-109469197D01*
X157868121Y-109465645D01*
X157857338Y-109459881D01*
X157847880Y-109452120D01*
X157840119Y-109442662D01*
X157834355Y-109431879D01*
X157830803Y-109420170D01*
X157829000Y-109401862D01*
X157829000Y-109038138D01*
X157830803Y-109019830D01*
X157834355Y-109008121D01*
X157840119Y-108997338D01*
X157847880Y-108987880D01*
X157857338Y-108980119D01*
X157868121Y-108974355D01*
X157879830Y-108970803D01*
X157898138Y-108969000D01*
X158321862Y-108969000D01*
X158340170Y-108970803D01*
X158340170Y-108970803D01*
G37*
G36*
X110426232Y-102233483D02*
X110614919Y-102290721D01*
X110788817Y-102383671D01*
X110941239Y-102508761D01*
X111066329Y-102661183D01*
X111159279Y-102835081D01*
X111216517Y-103023768D01*
X111235843Y-103220000D01*
X111216517Y-103416232D01*
X111159279Y-103604919D01*
X111066329Y-103778817D01*
X110941239Y-103931239D01*
X110788817Y-104056329D01*
X110614919Y-104149279D01*
X110426232Y-104206517D01*
X110279176Y-104221000D01*
X108580824Y-104221000D01*
X108433768Y-104206517D01*
X108245081Y-104149279D01*
X108071183Y-104056329D01*
X107918761Y-103931239D01*
X107793671Y-103778817D01*
X107700721Y-103604919D01*
X107643483Y-103416232D01*
X107624157Y-103220000D01*
X107643483Y-103023768D01*
X107700721Y-102835081D01*
X107793671Y-102661183D01*
X107918761Y-102508761D01*
X108071183Y-102383671D01*
X108245081Y-102290721D01*
X108433768Y-102233483D01*
X108580824Y-102219000D01*
X110279176Y-102219000D01*
X110426232Y-102233483D01*
X110426232Y-102233483D01*
G37*
G36*
X159501000Y-103544000D02*
X159503402Y-103568386D01*
X159510515Y-103591835D01*
X159522066Y-103613446D01*
X159526000Y-103618239D01*
X159526000Y-104151000D01*
X157974000Y-104151000D01*
X157974000Y-103618239D01*
X157977934Y-103613446D01*
X157989485Y-103591835D01*
X157996598Y-103568386D01*
X157999000Y-103544000D01*
X157999000Y-102219000D01*
X159501000Y-102219000D01*
X159501000Y-103544000D01*
X159501000Y-103544000D01*
G37*
G36*
X197706000Y-103421000D02*
X195104000Y-103421000D01*
X195104000Y-102319000D01*
X197706000Y-102319000D01*
X197706000Y-103421000D01*
X197706000Y-103421000D01*
G37*
G36*
X186600170Y-102620803D02*
X186611875Y-102624354D01*
X186631076Y-102634617D01*
X186653715Y-102643994D01*
X186677749Y-102648774D01*
X186702253Y-102648774D01*
X186726286Y-102643993D01*
X186748924Y-102634617D01*
X186768125Y-102624354D01*
X186779830Y-102620803D01*
X186798138Y-102619000D01*
X187221862Y-102619000D01*
X187240170Y-102620803D01*
X187251879Y-102624355D01*
X187262662Y-102630119D01*
X187272120Y-102637880D01*
X187279881Y-102647338D01*
X187285645Y-102658121D01*
X187289197Y-102669830D01*
X187291000Y-102688138D01*
X187291000Y-103051862D01*
X187289197Y-103070170D01*
X187285645Y-103081879D01*
X187279881Y-103092662D01*
X187272120Y-103102120D01*
X187262662Y-103109881D01*
X187251879Y-103115645D01*
X187240170Y-103119197D01*
X187221862Y-103121000D01*
X186798138Y-103121000D01*
X186779830Y-103119197D01*
X186768125Y-103115646D01*
X186748924Y-103105383D01*
X186726285Y-103096006D01*
X186702251Y-103091226D01*
X186677747Y-103091226D01*
X186653714Y-103096007D01*
X186631076Y-103105383D01*
X186611875Y-103115646D01*
X186600170Y-103119197D01*
X186581862Y-103121000D01*
X186158138Y-103121000D01*
X186139830Y-103119197D01*
X186128121Y-103115645D01*
X186117338Y-103109881D01*
X186107880Y-103102120D01*
X186100119Y-103092662D01*
X186094355Y-103081879D01*
X186090803Y-103070170D01*
X186089000Y-103051862D01*
X186089000Y-102688138D01*
X186090803Y-102669830D01*
X186094355Y-102658121D01*
X186100119Y-102647338D01*
X186107880Y-102637880D01*
X186117338Y-102630119D01*
X186128121Y-102624355D01*
X186139830Y-102620803D01*
X186158138Y-102619000D01*
X186581862Y-102619000D01*
X186600170Y-102620803D01*
X186600170Y-102620803D01*
G37*
G36*
X107981000Y-101621000D02*
X105379000Y-101621000D01*
X105379000Y-100419000D01*
X107981000Y-100419000D01*
X107981000Y-101621000D01*
X107981000Y-101621000D01*
G37*
G36*
X197706000Y-100881000D02*
X195104000Y-100881000D01*
X195104000Y-99779000D01*
X197706000Y-99779000D01*
X197706000Y-100881000D01*
X197706000Y-100881000D01*
G37*
G36*
X109605305Y-99242096D02*
X109714680Y-99287400D01*
X109813118Y-99353175D01*
X109896825Y-99436882D01*
X109962600Y-99535320D01*
X110007904Y-99644695D01*
X110031000Y-99760806D01*
X110031000Y-99879194D01*
X110007904Y-99995305D01*
X109962600Y-100104680D01*
X109896825Y-100203118D01*
X109813118Y-100286825D01*
X109714680Y-100352600D01*
X109605305Y-100397904D01*
X109489194Y-100421000D01*
X109370806Y-100421000D01*
X109254695Y-100397904D01*
X109145320Y-100352600D01*
X109046882Y-100286825D01*
X108963175Y-100203118D01*
X108897400Y-100104680D01*
X108852096Y-99995305D01*
X108829000Y-99879194D01*
X108829000Y-99760806D01*
X108852096Y-99644695D01*
X108897400Y-99535320D01*
X108963175Y-99436882D01*
X109046882Y-99353175D01*
X109145320Y-99287400D01*
X109254695Y-99242096D01*
X109370806Y-99219000D01*
X109489194Y-99219000D01*
X109605305Y-99242096D01*
X109605305Y-99242096D01*
G37*
G36*
X107981000Y-99121000D02*
X105379000Y-99121000D01*
X105379000Y-97919000D01*
X107981000Y-97919000D01*
X107981000Y-99121000D01*
X107981000Y-99121000D01*
G37*
G36*
X197706000Y-98341000D02*
X195104000Y-98341000D01*
X195104000Y-97239000D01*
X197706000Y-97239000D01*
X197706000Y-98341000D01*
X197706000Y-98341000D01*
G37*
G36*
X107981000Y-97121000D02*
X105379000Y-97121000D01*
X105379000Y-95919000D01*
X107981000Y-95919000D01*
X107981000Y-97121000D01*
X107981000Y-97121000D01*
G37*
G36*
X167205170Y-96270803D02*
X167216875Y-96274354D01*
X167236076Y-96284617D01*
X167258715Y-96293994D01*
X167282749Y-96298774D01*
X167307253Y-96298774D01*
X167331286Y-96293993D01*
X167353924Y-96284617D01*
X167373125Y-96274354D01*
X167384830Y-96270803D01*
X167403138Y-96269000D01*
X167826862Y-96269000D01*
X167845170Y-96270803D01*
X167856879Y-96274355D01*
X167867662Y-96280119D01*
X167877120Y-96287880D01*
X167884881Y-96297338D01*
X167890645Y-96308121D01*
X167894197Y-96319830D01*
X167896000Y-96338138D01*
X167896000Y-96701862D01*
X167894197Y-96720170D01*
X167890645Y-96731879D01*
X167884881Y-96742662D01*
X167877120Y-96752120D01*
X167867662Y-96759881D01*
X167856879Y-96765645D01*
X167845170Y-96769197D01*
X167826862Y-96771000D01*
X167403138Y-96771000D01*
X167384830Y-96769197D01*
X167373125Y-96765646D01*
X167353924Y-96755383D01*
X167331285Y-96746006D01*
X167307251Y-96741226D01*
X167282747Y-96741226D01*
X167258714Y-96746007D01*
X167236076Y-96755383D01*
X167216875Y-96765646D01*
X167205170Y-96769197D01*
X167186862Y-96771000D01*
X166763138Y-96771000D01*
X166744830Y-96769197D01*
X166733121Y-96765645D01*
X166722338Y-96759881D01*
X166712880Y-96752120D01*
X166705119Y-96742662D01*
X166699355Y-96731879D01*
X166695803Y-96720170D01*
X166694000Y-96701862D01*
X166694000Y-96338138D01*
X166695803Y-96319830D01*
X166699355Y-96308121D01*
X166705119Y-96297338D01*
X166712880Y-96287880D01*
X166722338Y-96280119D01*
X166733121Y-96274355D01*
X166744830Y-96270803D01*
X166763138Y-96269000D01*
X167186862Y-96269000D01*
X167205170Y-96270803D01*
X167205170Y-96270803D01*
G37*
G36*
X163521000Y-96236000D02*
X161919000Y-96236000D01*
X161919000Y-95534000D01*
X163521000Y-95534000D01*
X163521000Y-96236000D01*
X163521000Y-96236000D01*
G37*
G36*
X158121000Y-96236000D02*
X156519000Y-96236000D01*
X156519000Y-95534000D01*
X158121000Y-95534000D01*
X158121000Y-96236000D01*
X158121000Y-96236000D01*
G37*
G36*
X109605305Y-94642096D02*
X109714680Y-94687400D01*
X109813118Y-94753175D01*
X109896825Y-94836882D01*
X109962600Y-94935320D01*
X110007904Y-95044695D01*
X110031000Y-95160806D01*
X110031000Y-95279194D01*
X110007904Y-95395305D01*
X109962600Y-95504680D01*
X109896825Y-95603118D01*
X109813118Y-95686825D01*
X109714680Y-95752600D01*
X109605305Y-95797904D01*
X109489194Y-95821000D01*
X109370806Y-95821000D01*
X109254695Y-95797904D01*
X109145320Y-95752600D01*
X109046882Y-95686825D01*
X108963175Y-95603118D01*
X108897400Y-95504680D01*
X108852096Y-95395305D01*
X108829000Y-95279194D01*
X108829000Y-95160806D01*
X108852096Y-95044695D01*
X108897400Y-94935320D01*
X108963175Y-94836882D01*
X109046882Y-94753175D01*
X109145320Y-94687400D01*
X109254695Y-94642096D01*
X109370806Y-94619000D01*
X109489194Y-94619000D01*
X109605305Y-94642096D01*
X109605305Y-94642096D01*
G37*
G36*
X197706000Y-95801000D02*
X195104000Y-95801000D01*
X195104000Y-94699000D01*
X197706000Y-94699000D01*
X197706000Y-95801000D01*
X197706000Y-95801000D01*
G37*
G36*
X144940721Y-94720174D02*
X145040995Y-94761709D01*
X145131245Y-94822012D01*
X145207988Y-94898755D01*
X145268291Y-94989005D01*
X145309826Y-95089279D01*
X145331000Y-95195730D01*
X145331000Y-95304270D01*
X145309826Y-95410721D01*
X145268291Y-95510995D01*
X145207988Y-95601245D01*
X145131245Y-95677988D01*
X145040995Y-95738291D01*
X144940721Y-95779826D01*
X144834270Y-95801000D01*
X144725730Y-95801000D01*
X144619279Y-95779826D01*
X144519005Y-95738291D01*
X144428755Y-95677988D01*
X144352012Y-95601245D01*
X144291709Y-95510995D01*
X144250174Y-95410721D01*
X144229000Y-95304270D01*
X144229000Y-95195730D01*
X144250174Y-95089279D01*
X144291709Y-94989005D01*
X144352012Y-94898755D01*
X144428755Y-94822012D01*
X144519005Y-94761709D01*
X144619279Y-94720174D01*
X144725730Y-94699000D01*
X144834270Y-94699000D01*
X144940721Y-94720174D01*
X144940721Y-94720174D01*
G37*
G36*
X142400721Y-94720174D02*
X142500995Y-94761709D01*
X142591245Y-94822012D01*
X142667988Y-94898755D01*
X142728291Y-94989005D01*
X142769826Y-95089279D01*
X142791000Y-95195730D01*
X142791000Y-95304270D01*
X142769826Y-95410721D01*
X142728291Y-95510995D01*
X142667988Y-95601245D01*
X142591245Y-95677988D01*
X142500995Y-95738291D01*
X142400721Y-95779826D01*
X142294270Y-95801000D01*
X142185730Y-95801000D01*
X142079279Y-95779826D01*
X141979005Y-95738291D01*
X141888755Y-95677988D01*
X141812012Y-95601245D01*
X141751709Y-95510995D01*
X141710174Y-95410721D01*
X141689000Y-95304270D01*
X141689000Y-95195730D01*
X141710174Y-95089279D01*
X141751709Y-94989005D01*
X141812012Y-94898755D01*
X141888755Y-94822012D01*
X141979005Y-94761709D01*
X142079279Y-94720174D01*
X142185730Y-94699000D01*
X142294270Y-94699000D01*
X142400721Y-94720174D01*
X142400721Y-94720174D01*
G37*
G36*
X183656000Y-94271761D02*
X183652066Y-94276554D01*
X183640515Y-94298165D01*
X183633402Y-94321614D01*
X183631000Y-94346000D01*
X183631000Y-95671000D01*
X182129000Y-95671000D01*
X182129000Y-94346000D01*
X182126598Y-94321614D01*
X182119485Y-94298165D01*
X182107934Y-94276554D01*
X182104000Y-94271761D01*
X182104000Y-93739000D01*
X183656000Y-93739000D01*
X183656000Y-94271761D01*
X183656000Y-94271761D01*
G37*
G36*
X138055170Y-95000803D02*
X138066875Y-95004354D01*
X138086076Y-95014617D01*
X138108715Y-95023994D01*
X138132749Y-95028774D01*
X138157253Y-95028774D01*
X138181286Y-95023993D01*
X138203924Y-95014617D01*
X138223125Y-95004354D01*
X138234830Y-95000803D01*
X138253138Y-94999000D01*
X138676862Y-94999000D01*
X138695170Y-95000803D01*
X138706879Y-95004355D01*
X138717662Y-95010119D01*
X138727120Y-95017880D01*
X138734881Y-95027338D01*
X138740645Y-95038121D01*
X138744197Y-95049830D01*
X138746000Y-95068138D01*
X138746000Y-95431862D01*
X138744197Y-95450170D01*
X138740645Y-95461879D01*
X138734881Y-95472662D01*
X138727120Y-95482120D01*
X138717662Y-95489881D01*
X138706879Y-95495645D01*
X138695170Y-95499197D01*
X138676862Y-95501000D01*
X138253138Y-95501000D01*
X138234830Y-95499197D01*
X138223125Y-95495646D01*
X138203924Y-95485383D01*
X138181285Y-95476006D01*
X138157251Y-95471226D01*
X138132747Y-95471226D01*
X138108714Y-95476007D01*
X138086076Y-95485383D01*
X138066875Y-95495646D01*
X138055170Y-95499197D01*
X138036862Y-95501000D01*
X137613138Y-95501000D01*
X137594830Y-95499197D01*
X137583121Y-95495645D01*
X137572338Y-95489881D01*
X137562880Y-95482120D01*
X137555119Y-95472662D01*
X137549355Y-95461879D01*
X137545803Y-95450170D01*
X137544000Y-95431862D01*
X137544000Y-95068138D01*
X137545803Y-95049830D01*
X137549355Y-95038121D01*
X137555119Y-95027338D01*
X137562880Y-95017880D01*
X137572338Y-95010119D01*
X137583121Y-95004355D01*
X137594830Y-95000803D01*
X137613138Y-94999000D01*
X138036862Y-94999000D01*
X138055170Y-95000803D01*
X138055170Y-95000803D01*
G37*
G36*
X148785170Y-95000803D02*
X148796875Y-95004354D01*
X148816076Y-95014617D01*
X148838715Y-95023994D01*
X148862749Y-95028774D01*
X148887253Y-95028774D01*
X148911286Y-95023993D01*
X148933924Y-95014617D01*
X148953125Y-95004354D01*
X148964830Y-95000803D01*
X148983138Y-94999000D01*
X149406862Y-94999000D01*
X149425170Y-95000803D01*
X149436879Y-95004355D01*
X149447662Y-95010119D01*
X149457120Y-95017880D01*
X149464881Y-95027338D01*
X149470645Y-95038121D01*
X149474197Y-95049830D01*
X149476000Y-95068138D01*
X149476000Y-95431862D01*
X149474197Y-95450170D01*
X149470645Y-95461879D01*
X149464881Y-95472662D01*
X149457120Y-95482120D01*
X149447662Y-95489881D01*
X149436879Y-95495645D01*
X149425170Y-95499197D01*
X149406862Y-95501000D01*
X148983138Y-95501000D01*
X148964830Y-95499197D01*
X148953125Y-95495646D01*
X148933924Y-95485383D01*
X148911285Y-95476006D01*
X148887251Y-95471226D01*
X148862747Y-95471226D01*
X148838714Y-95476007D01*
X148816076Y-95485383D01*
X148796875Y-95495646D01*
X148785170Y-95499197D01*
X148766862Y-95501000D01*
X148343138Y-95501000D01*
X148324830Y-95499197D01*
X148313121Y-95495645D01*
X148302338Y-95489881D01*
X148292880Y-95482120D01*
X148285119Y-95472662D01*
X148279355Y-95461879D01*
X148275803Y-95450170D01*
X148274000Y-95431862D01*
X148274000Y-95068138D01*
X148275803Y-95049830D01*
X148279355Y-95038121D01*
X148285119Y-95027338D01*
X148292880Y-95017880D01*
X148302338Y-95010119D01*
X148313121Y-95004355D01*
X148324830Y-95000803D01*
X148343138Y-94999000D01*
X148766862Y-94999000D01*
X148785170Y-95000803D01*
X148785170Y-95000803D01*
G37*
G36*
X176036000Y-93751761D02*
X176032066Y-93756554D01*
X176020515Y-93778165D01*
X176013402Y-93801614D01*
X176011000Y-93826000D01*
X176011000Y-95151000D01*
X174509000Y-95151000D01*
X174509000Y-93826000D01*
X174506598Y-93801614D01*
X174499485Y-93778165D01*
X174487934Y-93756554D01*
X174484000Y-93751761D01*
X174484000Y-93219000D01*
X176036000Y-93219000D01*
X176036000Y-93751761D01*
X176036000Y-93751761D01*
G37*
G36*
X158121000Y-94966000D02*
X156519000Y-94966000D01*
X156519000Y-94264000D01*
X158121000Y-94264000D01*
X158121000Y-94966000D01*
X158121000Y-94966000D01*
G37*
G36*
X163521000Y-94966000D02*
X161919000Y-94966000D01*
X161919000Y-94264000D01*
X163521000Y-94264000D01*
X163521000Y-94966000D01*
X163521000Y-94966000D01*
G37*
G36*
X107981000Y-94621000D02*
X105379000Y-94621000D01*
X105379000Y-93419000D01*
X107981000Y-93419000D01*
X107981000Y-94621000D01*
X107981000Y-94621000D01*
G37*
G36*
X171360170Y-93730803D02*
X171371875Y-93734354D01*
X171391076Y-93744617D01*
X171413715Y-93753994D01*
X171437749Y-93758774D01*
X171462253Y-93758774D01*
X171486286Y-93753993D01*
X171508924Y-93744617D01*
X171528125Y-93734354D01*
X171539830Y-93730803D01*
X171558138Y-93729000D01*
X171981862Y-93729000D01*
X172000170Y-93730803D01*
X172011879Y-93734355D01*
X172022662Y-93740119D01*
X172032120Y-93747880D01*
X172039881Y-93757338D01*
X172045645Y-93768121D01*
X172049197Y-93779830D01*
X172051000Y-93798138D01*
X172051000Y-94161862D01*
X172049197Y-94180170D01*
X172045645Y-94191879D01*
X172039881Y-94202662D01*
X172032120Y-94212120D01*
X172022662Y-94219881D01*
X172011879Y-94225645D01*
X172000170Y-94229197D01*
X171981862Y-94231000D01*
X171558138Y-94231000D01*
X171539830Y-94229197D01*
X171528125Y-94225646D01*
X171508924Y-94215383D01*
X171486285Y-94206006D01*
X171462251Y-94201226D01*
X171437747Y-94201226D01*
X171413714Y-94206007D01*
X171391076Y-94215383D01*
X171371875Y-94225646D01*
X171360170Y-94229197D01*
X171341862Y-94231000D01*
X170918138Y-94231000D01*
X170899830Y-94229197D01*
X170888121Y-94225645D01*
X170877338Y-94219881D01*
X170867880Y-94212120D01*
X170860119Y-94202662D01*
X170854355Y-94191879D01*
X170850803Y-94180170D01*
X170849000Y-94161862D01*
X170849000Y-93798138D01*
X170850803Y-93779830D01*
X170854355Y-93768121D01*
X170860119Y-93757338D01*
X170867880Y-93747880D01*
X170877338Y-93740119D01*
X170888121Y-93734355D01*
X170899830Y-93730803D01*
X170918138Y-93729000D01*
X171341862Y-93729000D01*
X171360170Y-93730803D01*
X171360170Y-93730803D01*
G37*
G36*
X158121000Y-93696000D02*
X156519000Y-93696000D01*
X156519000Y-92994000D01*
X158121000Y-92994000D01*
X158121000Y-93696000D01*
X158121000Y-93696000D01*
G37*
G36*
X163521000Y-93696000D02*
X161919000Y-93696000D01*
X161919000Y-92994000D01*
X163521000Y-92994000D01*
X163521000Y-93696000D01*
X163521000Y-93696000D01*
G37*
G36*
X197706000Y-93261000D02*
X195104000Y-93261000D01*
X195104000Y-92159000D01*
X197706000Y-92159000D01*
X197706000Y-93261000D01*
X197706000Y-93261000D01*
G37*
G36*
X110426232Y-90833483D02*
X110614919Y-90890721D01*
X110788817Y-90983671D01*
X110941239Y-91108761D01*
X111066329Y-91261183D01*
X111159279Y-91435081D01*
X111216517Y-91623768D01*
X111235843Y-91820000D01*
X111216517Y-92016232D01*
X111159279Y-92204919D01*
X111066329Y-92378817D01*
X110941239Y-92531239D01*
X110788817Y-92656329D01*
X110614919Y-92749279D01*
X110426232Y-92806517D01*
X110279176Y-92821000D01*
X108580824Y-92821000D01*
X108433768Y-92806517D01*
X108245081Y-92749279D01*
X108071183Y-92656329D01*
X107918761Y-92531239D01*
X107793671Y-92378817D01*
X107700721Y-92204919D01*
X107643483Y-92016232D01*
X107624157Y-91820000D01*
X107643483Y-91623768D01*
X107700721Y-91435081D01*
X107793671Y-91261183D01*
X107918761Y-91108761D01*
X108071183Y-90983671D01*
X108245081Y-90890721D01*
X108433768Y-90833483D01*
X108580824Y-90819000D01*
X110279176Y-90819000D01*
X110426232Y-90833483D01*
X110426232Y-90833483D01*
G37*
G36*
X158121000Y-92426000D02*
X156519000Y-92426000D01*
X156519000Y-91724000D01*
X158121000Y-91724000D01*
X158121000Y-92426000D01*
X158121000Y-92426000D01*
G37*
G36*
X163521000Y-92426000D02*
X161919000Y-92426000D01*
X161919000Y-91724000D01*
X163521000Y-91724000D01*
X163521000Y-92426000D01*
X163521000Y-92426000D01*
G37*
G36*
X163521000Y-91156000D02*
X161919000Y-91156000D01*
X161919000Y-90454000D01*
X163521000Y-90454000D01*
X163521000Y-91156000D01*
X163521000Y-91156000D01*
G37*
G36*
X158121000Y-91156000D02*
X156519000Y-91156000D01*
X156519000Y-90454000D01*
X158121000Y-90454000D01*
X158121000Y-91156000D01*
X158121000Y-91156000D01*
G37*
G36*
X197706000Y-90721000D02*
X195104000Y-90721000D01*
X195104000Y-89619000D01*
X197706000Y-89619000D01*
X197706000Y-90721000D01*
X197706000Y-90721000D01*
G37*
G36*
X163521000Y-89886000D02*
X161919000Y-89886000D01*
X161919000Y-89184000D01*
X163521000Y-89184000D01*
X163521000Y-89886000D01*
X163521000Y-89886000D01*
G37*
G36*
X158121000Y-89886000D02*
X156519000Y-89886000D01*
X156519000Y-89184000D01*
X158121000Y-89184000D01*
X158121000Y-89886000D01*
X158121000Y-89886000D01*
G37*
G36*
X163521000Y-88616000D02*
X161919000Y-88616000D01*
X161919000Y-87914000D01*
X163521000Y-87914000D01*
X163521000Y-88616000D01*
X163521000Y-88616000D01*
G37*
G36*
X158121000Y-88616000D02*
X156519000Y-88616000D01*
X156519000Y-87914000D01*
X158121000Y-87914000D01*
X158121000Y-88616000D01*
X158121000Y-88616000D01*
G37*
G36*
X158121000Y-87346000D02*
X156519000Y-87346000D01*
X156519000Y-86644000D01*
X158121000Y-86644000D01*
X158121000Y-87346000D01*
X158121000Y-87346000D01*
G37*
G36*
X163521000Y-87346000D02*
X161919000Y-87346000D01*
X161919000Y-86644000D01*
X163521000Y-86644000D01*
X163521000Y-87346000D01*
X163521000Y-87346000D01*
G37*
G36*
X175115170Y-85760803D02*
X175126879Y-85764355D01*
X175137662Y-85770119D01*
X175147120Y-85777880D01*
X175154881Y-85787338D01*
X175160645Y-85798121D01*
X175164197Y-85809830D01*
X175166000Y-85828138D01*
X175166000Y-86251862D01*
X175164197Y-86270170D01*
X175160646Y-86281875D01*
X175150383Y-86301076D01*
X175141006Y-86323715D01*
X175136226Y-86347749D01*
X175136226Y-86372253D01*
X175141007Y-86396286D01*
X175150383Y-86418924D01*
X175160646Y-86438125D01*
X175164197Y-86449830D01*
X175166000Y-86468138D01*
X175166000Y-86891862D01*
X175164197Y-86910170D01*
X175160645Y-86921879D01*
X175154881Y-86932662D01*
X175147120Y-86942120D01*
X175137662Y-86949881D01*
X175126879Y-86955645D01*
X175115170Y-86959197D01*
X175096862Y-86961000D01*
X174733138Y-86961000D01*
X174714830Y-86959197D01*
X174703121Y-86955645D01*
X174692338Y-86949881D01*
X174682880Y-86942120D01*
X174675119Y-86932662D01*
X174669355Y-86921879D01*
X174665803Y-86910170D01*
X174664000Y-86891862D01*
X174664000Y-86468138D01*
X174665803Y-86449830D01*
X174669354Y-86438125D01*
X174679617Y-86418924D01*
X174688994Y-86396285D01*
X174693774Y-86372251D01*
X174693774Y-86347747D01*
X174688993Y-86323714D01*
X174679617Y-86301076D01*
X174669354Y-86281875D01*
X174665803Y-86270170D01*
X174664000Y-86251862D01*
X174664000Y-85828138D01*
X174665803Y-85809830D01*
X174669355Y-85798121D01*
X174675119Y-85787338D01*
X174682880Y-85777880D01*
X174692338Y-85770119D01*
X174703121Y-85764355D01*
X174714830Y-85760803D01*
X174733138Y-85759000D01*
X175096862Y-85759000D01*
X175115170Y-85760803D01*
X175115170Y-85760803D01*
G37*
G36*
X180540170Y-85760803D02*
X180551879Y-85764355D01*
X180562662Y-85770119D01*
X180572120Y-85777880D01*
X180579881Y-85787338D01*
X180585645Y-85798121D01*
X180589197Y-85809830D01*
X180591000Y-85828138D01*
X180591000Y-86251862D01*
X180589197Y-86270170D01*
X180585646Y-86281875D01*
X180575383Y-86301076D01*
X180566006Y-86323715D01*
X180561226Y-86347749D01*
X180561226Y-86372253D01*
X180566007Y-86396286D01*
X180575383Y-86418924D01*
X180585646Y-86438125D01*
X180589197Y-86449830D01*
X180591000Y-86468138D01*
X180591000Y-86891862D01*
X180589197Y-86910170D01*
X180585645Y-86921879D01*
X180579881Y-86932662D01*
X180572120Y-86942120D01*
X180562662Y-86949881D01*
X180551879Y-86955645D01*
X180540170Y-86959197D01*
X180521862Y-86961000D01*
X180158138Y-86961000D01*
X180139830Y-86959197D01*
X180128121Y-86955645D01*
X180117338Y-86949881D01*
X180107880Y-86942120D01*
X180100119Y-86932662D01*
X180094355Y-86921879D01*
X180090803Y-86910170D01*
X180089000Y-86891862D01*
X180089000Y-86468138D01*
X180090803Y-86449830D01*
X180094354Y-86438125D01*
X180104617Y-86418924D01*
X180113994Y-86396285D01*
X180118774Y-86372251D01*
X180118774Y-86347747D01*
X180113993Y-86323714D01*
X180104617Y-86301076D01*
X180094354Y-86281875D01*
X180090803Y-86270170D01*
X180089000Y-86251862D01*
X180089000Y-85828138D01*
X180090803Y-85809830D01*
X180094355Y-85798121D01*
X180100119Y-85787338D01*
X180107880Y-85777880D01*
X180117338Y-85770119D01*
X180128121Y-85764355D01*
X180139830Y-85760803D01*
X180158138Y-85759000D01*
X180521862Y-85759000D01*
X180540170Y-85760803D01*
X180540170Y-85760803D01*
G37*
G36*
X168820170Y-86110803D02*
X168831875Y-86114354D01*
X168851076Y-86124617D01*
X168873715Y-86133994D01*
X168897749Y-86138774D01*
X168922253Y-86138774D01*
X168946286Y-86133993D01*
X168968924Y-86124617D01*
X168988125Y-86114354D01*
X168999830Y-86110803D01*
X169018138Y-86109000D01*
X169441862Y-86109000D01*
X169460170Y-86110803D01*
X169471879Y-86114355D01*
X169482662Y-86120119D01*
X169492120Y-86127880D01*
X169499881Y-86137338D01*
X169505645Y-86148121D01*
X169509197Y-86159830D01*
X169511000Y-86178138D01*
X169511000Y-86541862D01*
X169509197Y-86560170D01*
X169505645Y-86571879D01*
X169499881Y-86582662D01*
X169492120Y-86592120D01*
X169482662Y-86599881D01*
X169471879Y-86605645D01*
X169460170Y-86609197D01*
X169441862Y-86611000D01*
X169018138Y-86611000D01*
X168999830Y-86609197D01*
X168988125Y-86605646D01*
X168968924Y-86595383D01*
X168946285Y-86586006D01*
X168922251Y-86581226D01*
X168897747Y-86581226D01*
X168873714Y-86586007D01*
X168851076Y-86595383D01*
X168831875Y-86605646D01*
X168820170Y-86609197D01*
X168801862Y-86611000D01*
X168378138Y-86611000D01*
X168359830Y-86609197D01*
X168348121Y-86605645D01*
X168337338Y-86599881D01*
X168327880Y-86592120D01*
X168320119Y-86582662D01*
X168314355Y-86571879D01*
X168310803Y-86560170D01*
X168309000Y-86541862D01*
X168309000Y-86178138D01*
X168310803Y-86159830D01*
X168314355Y-86148121D01*
X168320119Y-86137338D01*
X168327880Y-86127880D01*
X168337338Y-86120119D01*
X168348121Y-86114355D01*
X168359830Y-86110803D01*
X168378138Y-86109000D01*
X168801862Y-86109000D01*
X168820170Y-86110803D01*
X168820170Y-86110803D01*
G37*
G36*
X148500170Y-86110803D02*
X148511875Y-86114354D01*
X148531076Y-86124617D01*
X148553715Y-86133994D01*
X148577749Y-86138774D01*
X148602253Y-86138774D01*
X148626286Y-86133993D01*
X148648924Y-86124617D01*
X148668125Y-86114354D01*
X148679830Y-86110803D01*
X148698138Y-86109000D01*
X149121862Y-86109000D01*
X149140170Y-86110803D01*
X149151879Y-86114355D01*
X149162662Y-86120119D01*
X149172120Y-86127880D01*
X149179881Y-86137338D01*
X149185645Y-86148121D01*
X149189197Y-86159830D01*
X149191000Y-86178138D01*
X149191000Y-86541862D01*
X149189197Y-86560170D01*
X149185645Y-86571879D01*
X149179881Y-86582662D01*
X149172120Y-86592120D01*
X149162662Y-86599881D01*
X149151879Y-86605645D01*
X149140170Y-86609197D01*
X149121862Y-86611000D01*
X148698138Y-86611000D01*
X148679830Y-86609197D01*
X148668125Y-86605646D01*
X148648924Y-86595383D01*
X148626285Y-86586006D01*
X148602251Y-86581226D01*
X148577747Y-86581226D01*
X148553714Y-86586007D01*
X148531076Y-86595383D01*
X148511875Y-86605646D01*
X148500170Y-86609197D01*
X148481862Y-86611000D01*
X148058138Y-86611000D01*
X148039830Y-86609197D01*
X148028121Y-86605645D01*
X148017338Y-86599881D01*
X148007880Y-86592120D01*
X148000119Y-86582662D01*
X147994355Y-86571879D01*
X147990803Y-86560170D01*
X147989000Y-86541862D01*
X147989000Y-86178138D01*
X147990803Y-86159830D01*
X147994355Y-86148121D01*
X148000119Y-86137338D01*
X148007880Y-86127880D01*
X148017338Y-86120119D01*
X148028121Y-86114355D01*
X148039830Y-86110803D01*
X148058138Y-86109000D01*
X148481862Y-86109000D01*
X148500170Y-86110803D01*
X148500170Y-86110803D01*
G37*
G36*
X133260170Y-86110803D02*
X133271875Y-86114354D01*
X133291076Y-86124617D01*
X133313715Y-86133994D01*
X133337749Y-86138774D01*
X133362253Y-86138774D01*
X133386286Y-86133993D01*
X133408924Y-86124617D01*
X133428125Y-86114354D01*
X133439830Y-86110803D01*
X133458138Y-86109000D01*
X133881862Y-86109000D01*
X133900170Y-86110803D01*
X133911879Y-86114355D01*
X133922662Y-86120119D01*
X133932120Y-86127880D01*
X133939881Y-86137338D01*
X133945645Y-86148121D01*
X133949197Y-86159830D01*
X133951000Y-86178138D01*
X133951000Y-86541862D01*
X133949197Y-86560170D01*
X133945645Y-86571879D01*
X133939881Y-86582662D01*
X133932120Y-86592120D01*
X133922662Y-86599881D01*
X133911879Y-86605645D01*
X133900170Y-86609197D01*
X133881862Y-86611000D01*
X133458138Y-86611000D01*
X133439830Y-86609197D01*
X133428125Y-86605646D01*
X133408924Y-86595383D01*
X133386285Y-86586006D01*
X133362251Y-86581226D01*
X133337747Y-86581226D01*
X133313714Y-86586007D01*
X133291076Y-86595383D01*
X133271875Y-86605646D01*
X133260170Y-86609197D01*
X133241862Y-86611000D01*
X132818138Y-86611000D01*
X132799830Y-86609197D01*
X132788121Y-86605645D01*
X132777338Y-86599881D01*
X132767880Y-86592120D01*
X132760119Y-86582662D01*
X132754355Y-86571879D01*
X132750803Y-86560170D01*
X132749000Y-86541862D01*
X132749000Y-86178138D01*
X132750803Y-86159830D01*
X132754355Y-86148121D01*
X132760119Y-86137338D01*
X132767880Y-86127880D01*
X132777338Y-86120119D01*
X132788121Y-86114355D01*
X132799830Y-86110803D01*
X132818138Y-86109000D01*
X133241862Y-86109000D01*
X133260170Y-86110803D01*
X133260170Y-86110803D01*
G37*
G36*
X138340170Y-86110803D02*
X138351875Y-86114354D01*
X138371076Y-86124617D01*
X138393715Y-86133994D01*
X138417749Y-86138774D01*
X138442253Y-86138774D01*
X138466286Y-86133993D01*
X138488924Y-86124617D01*
X138508125Y-86114354D01*
X138519830Y-86110803D01*
X138538138Y-86109000D01*
X138961862Y-86109000D01*
X138980170Y-86110803D01*
X138991879Y-86114355D01*
X139002662Y-86120119D01*
X139012120Y-86127880D01*
X139019881Y-86137338D01*
X139025645Y-86148121D01*
X139029197Y-86159830D01*
X139031000Y-86178138D01*
X139031000Y-86541862D01*
X139029197Y-86560170D01*
X139025645Y-86571879D01*
X139019881Y-86582662D01*
X139012120Y-86592120D01*
X139002662Y-86599881D01*
X138991879Y-86605645D01*
X138980170Y-86609197D01*
X138961862Y-86611000D01*
X138538138Y-86611000D01*
X138519830Y-86609197D01*
X138508125Y-86605646D01*
X138488924Y-86595383D01*
X138466285Y-86586006D01*
X138442251Y-86581226D01*
X138417747Y-86581226D01*
X138393714Y-86586007D01*
X138371076Y-86595383D01*
X138351875Y-86605646D01*
X138340170Y-86609197D01*
X138321862Y-86611000D01*
X137898138Y-86611000D01*
X137879830Y-86609197D01*
X137868121Y-86605645D01*
X137857338Y-86599881D01*
X137847880Y-86592120D01*
X137840119Y-86582662D01*
X137834355Y-86571879D01*
X137830803Y-86560170D01*
X137829000Y-86541862D01*
X137829000Y-86178138D01*
X137830803Y-86159830D01*
X137834355Y-86148121D01*
X137840119Y-86137338D01*
X137847880Y-86127880D01*
X137857338Y-86120119D01*
X137868121Y-86114355D01*
X137879830Y-86110803D01*
X137898138Y-86109000D01*
X138321862Y-86109000D01*
X138340170Y-86110803D01*
X138340170Y-86110803D01*
G37*
M02*
