G04 #@! TF.GenerationSoftware,KiCad,Pcbnew,5.0.2+dfsg1-1*
G04 #@! TF.CreationDate,2021-08-05T15:20:41-03:00*
G04 #@! TF.ProjectId,universerial,756e6976-6572-4736-9572-69616c2e6b69,rev?*
G04 #@! TF.SameCoordinates,Original*
G04 #@! TF.FileFunction,Copper,L1,Top*
G04 #@! TF.FilePolarity,Positive*
%FSLAX46Y46*%
G04 Gerber Fmt 4.6, Leading zero omitted, Abs format (unit mm)*
G04 Created by KiCad (PCBNEW 5.0.2+dfsg1-1) date Thu Aug  5 15:20:41 2021*
%MOMM*%
%LPD*%
G01*
G04 APERTURE LIST*
G04 #@! TA.AperFunction,SMDPad,CuDef*
%ADD10R,2.500000X1.100000*%
G04 #@! TD*
G04 #@! TA.AperFunction,ComponentPad*
%ADD11O,3.500000X1.900000*%
G04 #@! TD*
G04 #@! TA.AperFunction,Conductor*
%ADD12C,0.100000*%
G04 #@! TD*
G04 #@! TA.AperFunction,SMDPad,CuDef*
%ADD13C,0.400000*%
G04 #@! TD*
G04 #@! TA.AperFunction,SMDPad,CuDef*
%ADD14R,1.400000X1.200000*%
G04 #@! TD*
G04 #@! TA.AperFunction,SMDPad,CuDef*
%ADD15R,0.550000X0.380000*%
G04 #@! TD*
G04 #@! TA.AperFunction,SMDPad,CuDef*
%ADD16R,2.500000X1.000000*%
G04 #@! TD*
G04 #@! TA.AperFunction,SMDPad,CuDef*
%ADD17R,1.500000X0.600000*%
G04 #@! TD*
G04 #@! TA.AperFunction,ComponentPad*
%ADD18C,1.000000*%
G04 #@! TD*
G04 #@! TA.AperFunction,ViaPad*
%ADD19C,0.800000*%
G04 #@! TD*
G04 #@! TA.AperFunction,Conductor*
%ADD20C,0.250000*%
G04 #@! TD*
G04 APERTURE END LIST*
D10*
G04 #@! TO.P,J1,2*
G04 #@! TO.N,Net-(J1-Pad2)*
X106680000Y-96520000D03*
G04 #@! TO.P,J1,3*
G04 #@! TO.N,Net-(J1-Pad3)*
X106680000Y-98520000D03*
G04 #@! TO.P,J1,1*
G04 #@! TO.N,+5V*
X106680000Y-94020000D03*
G04 #@! TO.P,J1,4*
G04 #@! TO.N,GND*
X106680000Y-101020000D03*
D11*
G04 #@! TO.P,J1,5*
X109430000Y-91820000D03*
X109430000Y-103220000D03*
G04 #@! TD*
D12*
G04 #@! TO.N,GND*
G04 #@! TO.C,C1*
G36*
X133809802Y-86160482D02*
X133819509Y-86161921D01*
X133829028Y-86164306D01*
X133838268Y-86167612D01*
X133847140Y-86171808D01*
X133855557Y-86176853D01*
X133863439Y-86182699D01*
X133870711Y-86189289D01*
X133877301Y-86196561D01*
X133883147Y-86204443D01*
X133888192Y-86212860D01*
X133892388Y-86221732D01*
X133895694Y-86230972D01*
X133898079Y-86240491D01*
X133899518Y-86250198D01*
X133900000Y-86260000D01*
X133900000Y-86460000D01*
X133899518Y-86469802D01*
X133898079Y-86479509D01*
X133895694Y-86489028D01*
X133892388Y-86498268D01*
X133888192Y-86507140D01*
X133883147Y-86515557D01*
X133877301Y-86523439D01*
X133870711Y-86530711D01*
X133863439Y-86537301D01*
X133855557Y-86543147D01*
X133847140Y-86548192D01*
X133838268Y-86552388D01*
X133829028Y-86555694D01*
X133819509Y-86558079D01*
X133809802Y-86559518D01*
X133800000Y-86560000D01*
X133540000Y-86560000D01*
X133530198Y-86559518D01*
X133520491Y-86558079D01*
X133510972Y-86555694D01*
X133501732Y-86552388D01*
X133492860Y-86548192D01*
X133484443Y-86543147D01*
X133476561Y-86537301D01*
X133469289Y-86530711D01*
X133462699Y-86523439D01*
X133456853Y-86515557D01*
X133451808Y-86507140D01*
X133447612Y-86498268D01*
X133444306Y-86489028D01*
X133441921Y-86479509D01*
X133440482Y-86469802D01*
X133440000Y-86460000D01*
X133440000Y-86260000D01*
X133440482Y-86250198D01*
X133441921Y-86240491D01*
X133444306Y-86230972D01*
X133447612Y-86221732D01*
X133451808Y-86212860D01*
X133456853Y-86204443D01*
X133462699Y-86196561D01*
X133469289Y-86189289D01*
X133476561Y-86182699D01*
X133484443Y-86176853D01*
X133492860Y-86171808D01*
X133501732Y-86167612D01*
X133510972Y-86164306D01*
X133520491Y-86161921D01*
X133530198Y-86160482D01*
X133540000Y-86160000D01*
X133800000Y-86160000D01*
X133809802Y-86160482D01*
X133809802Y-86160482D01*
G37*
D13*
G04 #@! TD*
G04 #@! TO.P,C1,2*
G04 #@! TO.N,GND*
X133670000Y-86360000D03*
D12*
G04 #@! TO.N,+5V*
G04 #@! TO.C,C1*
G36*
X133169802Y-86160482D02*
X133179509Y-86161921D01*
X133189028Y-86164306D01*
X133198268Y-86167612D01*
X133207140Y-86171808D01*
X133215557Y-86176853D01*
X133223439Y-86182699D01*
X133230711Y-86189289D01*
X133237301Y-86196561D01*
X133243147Y-86204443D01*
X133248192Y-86212860D01*
X133252388Y-86221732D01*
X133255694Y-86230972D01*
X133258079Y-86240491D01*
X133259518Y-86250198D01*
X133260000Y-86260000D01*
X133260000Y-86460000D01*
X133259518Y-86469802D01*
X133258079Y-86479509D01*
X133255694Y-86489028D01*
X133252388Y-86498268D01*
X133248192Y-86507140D01*
X133243147Y-86515557D01*
X133237301Y-86523439D01*
X133230711Y-86530711D01*
X133223439Y-86537301D01*
X133215557Y-86543147D01*
X133207140Y-86548192D01*
X133198268Y-86552388D01*
X133189028Y-86555694D01*
X133179509Y-86558079D01*
X133169802Y-86559518D01*
X133160000Y-86560000D01*
X132900000Y-86560000D01*
X132890198Y-86559518D01*
X132880491Y-86558079D01*
X132870972Y-86555694D01*
X132861732Y-86552388D01*
X132852860Y-86548192D01*
X132844443Y-86543147D01*
X132836561Y-86537301D01*
X132829289Y-86530711D01*
X132822699Y-86523439D01*
X132816853Y-86515557D01*
X132811808Y-86507140D01*
X132807612Y-86498268D01*
X132804306Y-86489028D01*
X132801921Y-86479509D01*
X132800482Y-86469802D01*
X132800000Y-86460000D01*
X132800000Y-86260000D01*
X132800482Y-86250198D01*
X132801921Y-86240491D01*
X132804306Y-86230972D01*
X132807612Y-86221732D01*
X132811808Y-86212860D01*
X132816853Y-86204443D01*
X132822699Y-86196561D01*
X132829289Y-86189289D01*
X132836561Y-86182699D01*
X132844443Y-86176853D01*
X132852860Y-86171808D01*
X132861732Y-86167612D01*
X132870972Y-86164306D01*
X132880491Y-86161921D01*
X132890198Y-86160482D01*
X132900000Y-86160000D01*
X133160000Y-86160000D01*
X133169802Y-86160482D01*
X133169802Y-86160482D01*
G37*
D13*
G04 #@! TD*
G04 #@! TO.P,C1,1*
G04 #@! TO.N,+5V*
X133030000Y-86360000D03*
D12*
G04 #@! TO.N,+5V*
G04 #@! TO.C,C2*
G36*
X138249802Y-86160482D02*
X138259509Y-86161921D01*
X138269028Y-86164306D01*
X138278268Y-86167612D01*
X138287140Y-86171808D01*
X138295557Y-86176853D01*
X138303439Y-86182699D01*
X138310711Y-86189289D01*
X138317301Y-86196561D01*
X138323147Y-86204443D01*
X138328192Y-86212860D01*
X138332388Y-86221732D01*
X138335694Y-86230972D01*
X138338079Y-86240491D01*
X138339518Y-86250198D01*
X138340000Y-86260000D01*
X138340000Y-86460000D01*
X138339518Y-86469802D01*
X138338079Y-86479509D01*
X138335694Y-86489028D01*
X138332388Y-86498268D01*
X138328192Y-86507140D01*
X138323147Y-86515557D01*
X138317301Y-86523439D01*
X138310711Y-86530711D01*
X138303439Y-86537301D01*
X138295557Y-86543147D01*
X138287140Y-86548192D01*
X138278268Y-86552388D01*
X138269028Y-86555694D01*
X138259509Y-86558079D01*
X138249802Y-86559518D01*
X138240000Y-86560000D01*
X137980000Y-86560000D01*
X137970198Y-86559518D01*
X137960491Y-86558079D01*
X137950972Y-86555694D01*
X137941732Y-86552388D01*
X137932860Y-86548192D01*
X137924443Y-86543147D01*
X137916561Y-86537301D01*
X137909289Y-86530711D01*
X137902699Y-86523439D01*
X137896853Y-86515557D01*
X137891808Y-86507140D01*
X137887612Y-86498268D01*
X137884306Y-86489028D01*
X137881921Y-86479509D01*
X137880482Y-86469802D01*
X137880000Y-86460000D01*
X137880000Y-86260000D01*
X137880482Y-86250198D01*
X137881921Y-86240491D01*
X137884306Y-86230972D01*
X137887612Y-86221732D01*
X137891808Y-86212860D01*
X137896853Y-86204443D01*
X137902699Y-86196561D01*
X137909289Y-86189289D01*
X137916561Y-86182699D01*
X137924443Y-86176853D01*
X137932860Y-86171808D01*
X137941732Y-86167612D01*
X137950972Y-86164306D01*
X137960491Y-86161921D01*
X137970198Y-86160482D01*
X137980000Y-86160000D01*
X138240000Y-86160000D01*
X138249802Y-86160482D01*
X138249802Y-86160482D01*
G37*
D13*
G04 #@! TD*
G04 #@! TO.P,C2,1*
G04 #@! TO.N,+5V*
X138110000Y-86360000D03*
D12*
G04 #@! TO.N,GND*
G04 #@! TO.C,C2*
G36*
X138889802Y-86160482D02*
X138899509Y-86161921D01*
X138909028Y-86164306D01*
X138918268Y-86167612D01*
X138927140Y-86171808D01*
X138935557Y-86176853D01*
X138943439Y-86182699D01*
X138950711Y-86189289D01*
X138957301Y-86196561D01*
X138963147Y-86204443D01*
X138968192Y-86212860D01*
X138972388Y-86221732D01*
X138975694Y-86230972D01*
X138978079Y-86240491D01*
X138979518Y-86250198D01*
X138980000Y-86260000D01*
X138980000Y-86460000D01*
X138979518Y-86469802D01*
X138978079Y-86479509D01*
X138975694Y-86489028D01*
X138972388Y-86498268D01*
X138968192Y-86507140D01*
X138963147Y-86515557D01*
X138957301Y-86523439D01*
X138950711Y-86530711D01*
X138943439Y-86537301D01*
X138935557Y-86543147D01*
X138927140Y-86548192D01*
X138918268Y-86552388D01*
X138909028Y-86555694D01*
X138899509Y-86558079D01*
X138889802Y-86559518D01*
X138880000Y-86560000D01*
X138620000Y-86560000D01*
X138610198Y-86559518D01*
X138600491Y-86558079D01*
X138590972Y-86555694D01*
X138581732Y-86552388D01*
X138572860Y-86548192D01*
X138564443Y-86543147D01*
X138556561Y-86537301D01*
X138549289Y-86530711D01*
X138542699Y-86523439D01*
X138536853Y-86515557D01*
X138531808Y-86507140D01*
X138527612Y-86498268D01*
X138524306Y-86489028D01*
X138521921Y-86479509D01*
X138520482Y-86469802D01*
X138520000Y-86460000D01*
X138520000Y-86260000D01*
X138520482Y-86250198D01*
X138521921Y-86240491D01*
X138524306Y-86230972D01*
X138527612Y-86221732D01*
X138531808Y-86212860D01*
X138536853Y-86204443D01*
X138542699Y-86196561D01*
X138549289Y-86189289D01*
X138556561Y-86182699D01*
X138564443Y-86176853D01*
X138572860Y-86171808D01*
X138581732Y-86167612D01*
X138590972Y-86164306D01*
X138600491Y-86161921D01*
X138610198Y-86160482D01*
X138620000Y-86160000D01*
X138880000Y-86160000D01*
X138889802Y-86160482D01*
X138889802Y-86160482D01*
G37*
D13*
G04 #@! TD*
G04 #@! TO.P,C2,2*
G04 #@! TO.N,GND*
X138750000Y-86360000D03*
D12*
G04 #@! TO.N,GND*
G04 #@! TO.C,C3*
G36*
X138604802Y-95050482D02*
X138614509Y-95051921D01*
X138624028Y-95054306D01*
X138633268Y-95057612D01*
X138642140Y-95061808D01*
X138650557Y-95066853D01*
X138658439Y-95072699D01*
X138665711Y-95079289D01*
X138672301Y-95086561D01*
X138678147Y-95094443D01*
X138683192Y-95102860D01*
X138687388Y-95111732D01*
X138690694Y-95120972D01*
X138693079Y-95130491D01*
X138694518Y-95140198D01*
X138695000Y-95150000D01*
X138695000Y-95350000D01*
X138694518Y-95359802D01*
X138693079Y-95369509D01*
X138690694Y-95379028D01*
X138687388Y-95388268D01*
X138683192Y-95397140D01*
X138678147Y-95405557D01*
X138672301Y-95413439D01*
X138665711Y-95420711D01*
X138658439Y-95427301D01*
X138650557Y-95433147D01*
X138642140Y-95438192D01*
X138633268Y-95442388D01*
X138624028Y-95445694D01*
X138614509Y-95448079D01*
X138604802Y-95449518D01*
X138595000Y-95450000D01*
X138335000Y-95450000D01*
X138325198Y-95449518D01*
X138315491Y-95448079D01*
X138305972Y-95445694D01*
X138296732Y-95442388D01*
X138287860Y-95438192D01*
X138279443Y-95433147D01*
X138271561Y-95427301D01*
X138264289Y-95420711D01*
X138257699Y-95413439D01*
X138251853Y-95405557D01*
X138246808Y-95397140D01*
X138242612Y-95388268D01*
X138239306Y-95379028D01*
X138236921Y-95369509D01*
X138235482Y-95359802D01*
X138235000Y-95350000D01*
X138235000Y-95150000D01*
X138235482Y-95140198D01*
X138236921Y-95130491D01*
X138239306Y-95120972D01*
X138242612Y-95111732D01*
X138246808Y-95102860D01*
X138251853Y-95094443D01*
X138257699Y-95086561D01*
X138264289Y-95079289D01*
X138271561Y-95072699D01*
X138279443Y-95066853D01*
X138287860Y-95061808D01*
X138296732Y-95057612D01*
X138305972Y-95054306D01*
X138315491Y-95051921D01*
X138325198Y-95050482D01*
X138335000Y-95050000D01*
X138595000Y-95050000D01*
X138604802Y-95050482D01*
X138604802Y-95050482D01*
G37*
D13*
G04 #@! TD*
G04 #@! TO.P,C3,2*
G04 #@! TO.N,GND*
X138465000Y-95250000D03*
D12*
G04 #@! TO.N,Net-(C3-Pad1)*
G04 #@! TO.C,C3*
G36*
X137964802Y-95050482D02*
X137974509Y-95051921D01*
X137984028Y-95054306D01*
X137993268Y-95057612D01*
X138002140Y-95061808D01*
X138010557Y-95066853D01*
X138018439Y-95072699D01*
X138025711Y-95079289D01*
X138032301Y-95086561D01*
X138038147Y-95094443D01*
X138043192Y-95102860D01*
X138047388Y-95111732D01*
X138050694Y-95120972D01*
X138053079Y-95130491D01*
X138054518Y-95140198D01*
X138055000Y-95150000D01*
X138055000Y-95350000D01*
X138054518Y-95359802D01*
X138053079Y-95369509D01*
X138050694Y-95379028D01*
X138047388Y-95388268D01*
X138043192Y-95397140D01*
X138038147Y-95405557D01*
X138032301Y-95413439D01*
X138025711Y-95420711D01*
X138018439Y-95427301D01*
X138010557Y-95433147D01*
X138002140Y-95438192D01*
X137993268Y-95442388D01*
X137984028Y-95445694D01*
X137974509Y-95448079D01*
X137964802Y-95449518D01*
X137955000Y-95450000D01*
X137695000Y-95450000D01*
X137685198Y-95449518D01*
X137675491Y-95448079D01*
X137665972Y-95445694D01*
X137656732Y-95442388D01*
X137647860Y-95438192D01*
X137639443Y-95433147D01*
X137631561Y-95427301D01*
X137624289Y-95420711D01*
X137617699Y-95413439D01*
X137611853Y-95405557D01*
X137606808Y-95397140D01*
X137602612Y-95388268D01*
X137599306Y-95379028D01*
X137596921Y-95369509D01*
X137595482Y-95359802D01*
X137595000Y-95350000D01*
X137595000Y-95150000D01*
X137595482Y-95140198D01*
X137596921Y-95130491D01*
X137599306Y-95120972D01*
X137602612Y-95111732D01*
X137606808Y-95102860D01*
X137611853Y-95094443D01*
X137617699Y-95086561D01*
X137624289Y-95079289D01*
X137631561Y-95072699D01*
X137639443Y-95066853D01*
X137647860Y-95061808D01*
X137656732Y-95057612D01*
X137665972Y-95054306D01*
X137675491Y-95051921D01*
X137685198Y-95050482D01*
X137695000Y-95050000D01*
X137955000Y-95050000D01*
X137964802Y-95050482D01*
X137964802Y-95050482D01*
G37*
D13*
G04 #@! TD*
G04 #@! TO.P,C3,1*
G04 #@! TO.N,Net-(C3-Pad1)*
X137825000Y-95250000D03*
D12*
G04 #@! TO.N,Net-(C4-Pad1)*
G04 #@! TO.C,C4*
G36*
X148694802Y-95050482D02*
X148704509Y-95051921D01*
X148714028Y-95054306D01*
X148723268Y-95057612D01*
X148732140Y-95061808D01*
X148740557Y-95066853D01*
X148748439Y-95072699D01*
X148755711Y-95079289D01*
X148762301Y-95086561D01*
X148768147Y-95094443D01*
X148773192Y-95102860D01*
X148777388Y-95111732D01*
X148780694Y-95120972D01*
X148783079Y-95130491D01*
X148784518Y-95140198D01*
X148785000Y-95150000D01*
X148785000Y-95350000D01*
X148784518Y-95359802D01*
X148783079Y-95369509D01*
X148780694Y-95379028D01*
X148777388Y-95388268D01*
X148773192Y-95397140D01*
X148768147Y-95405557D01*
X148762301Y-95413439D01*
X148755711Y-95420711D01*
X148748439Y-95427301D01*
X148740557Y-95433147D01*
X148732140Y-95438192D01*
X148723268Y-95442388D01*
X148714028Y-95445694D01*
X148704509Y-95448079D01*
X148694802Y-95449518D01*
X148685000Y-95450000D01*
X148425000Y-95450000D01*
X148415198Y-95449518D01*
X148405491Y-95448079D01*
X148395972Y-95445694D01*
X148386732Y-95442388D01*
X148377860Y-95438192D01*
X148369443Y-95433147D01*
X148361561Y-95427301D01*
X148354289Y-95420711D01*
X148347699Y-95413439D01*
X148341853Y-95405557D01*
X148336808Y-95397140D01*
X148332612Y-95388268D01*
X148329306Y-95379028D01*
X148326921Y-95369509D01*
X148325482Y-95359802D01*
X148325000Y-95350000D01*
X148325000Y-95150000D01*
X148325482Y-95140198D01*
X148326921Y-95130491D01*
X148329306Y-95120972D01*
X148332612Y-95111732D01*
X148336808Y-95102860D01*
X148341853Y-95094443D01*
X148347699Y-95086561D01*
X148354289Y-95079289D01*
X148361561Y-95072699D01*
X148369443Y-95066853D01*
X148377860Y-95061808D01*
X148386732Y-95057612D01*
X148395972Y-95054306D01*
X148405491Y-95051921D01*
X148415198Y-95050482D01*
X148425000Y-95050000D01*
X148685000Y-95050000D01*
X148694802Y-95050482D01*
X148694802Y-95050482D01*
G37*
D13*
G04 #@! TD*
G04 #@! TO.P,C4,1*
G04 #@! TO.N,Net-(C4-Pad1)*
X148555000Y-95250000D03*
D12*
G04 #@! TO.N,GND*
G04 #@! TO.C,C4*
G36*
X149334802Y-95050482D02*
X149344509Y-95051921D01*
X149354028Y-95054306D01*
X149363268Y-95057612D01*
X149372140Y-95061808D01*
X149380557Y-95066853D01*
X149388439Y-95072699D01*
X149395711Y-95079289D01*
X149402301Y-95086561D01*
X149408147Y-95094443D01*
X149413192Y-95102860D01*
X149417388Y-95111732D01*
X149420694Y-95120972D01*
X149423079Y-95130491D01*
X149424518Y-95140198D01*
X149425000Y-95150000D01*
X149425000Y-95350000D01*
X149424518Y-95359802D01*
X149423079Y-95369509D01*
X149420694Y-95379028D01*
X149417388Y-95388268D01*
X149413192Y-95397140D01*
X149408147Y-95405557D01*
X149402301Y-95413439D01*
X149395711Y-95420711D01*
X149388439Y-95427301D01*
X149380557Y-95433147D01*
X149372140Y-95438192D01*
X149363268Y-95442388D01*
X149354028Y-95445694D01*
X149344509Y-95448079D01*
X149334802Y-95449518D01*
X149325000Y-95450000D01*
X149065000Y-95450000D01*
X149055198Y-95449518D01*
X149045491Y-95448079D01*
X149035972Y-95445694D01*
X149026732Y-95442388D01*
X149017860Y-95438192D01*
X149009443Y-95433147D01*
X149001561Y-95427301D01*
X148994289Y-95420711D01*
X148987699Y-95413439D01*
X148981853Y-95405557D01*
X148976808Y-95397140D01*
X148972612Y-95388268D01*
X148969306Y-95379028D01*
X148966921Y-95369509D01*
X148965482Y-95359802D01*
X148965000Y-95350000D01*
X148965000Y-95150000D01*
X148965482Y-95140198D01*
X148966921Y-95130491D01*
X148969306Y-95120972D01*
X148972612Y-95111732D01*
X148976808Y-95102860D01*
X148981853Y-95094443D01*
X148987699Y-95086561D01*
X148994289Y-95079289D01*
X149001561Y-95072699D01*
X149009443Y-95066853D01*
X149017860Y-95061808D01*
X149026732Y-95057612D01*
X149035972Y-95054306D01*
X149045491Y-95051921D01*
X149055198Y-95050482D01*
X149065000Y-95050000D01*
X149325000Y-95050000D01*
X149334802Y-95050482D01*
X149334802Y-95050482D01*
G37*
D13*
G04 #@! TD*
G04 #@! TO.P,C4,2*
G04 #@! TO.N,GND*
X149195000Y-95250000D03*
D12*
G04 #@! TO.N,GND*
G04 #@! TO.C,C5*
G36*
X149049802Y-86160482D02*
X149059509Y-86161921D01*
X149069028Y-86164306D01*
X149078268Y-86167612D01*
X149087140Y-86171808D01*
X149095557Y-86176853D01*
X149103439Y-86182699D01*
X149110711Y-86189289D01*
X149117301Y-86196561D01*
X149123147Y-86204443D01*
X149128192Y-86212860D01*
X149132388Y-86221732D01*
X149135694Y-86230972D01*
X149138079Y-86240491D01*
X149139518Y-86250198D01*
X149140000Y-86260000D01*
X149140000Y-86460000D01*
X149139518Y-86469802D01*
X149138079Y-86479509D01*
X149135694Y-86489028D01*
X149132388Y-86498268D01*
X149128192Y-86507140D01*
X149123147Y-86515557D01*
X149117301Y-86523439D01*
X149110711Y-86530711D01*
X149103439Y-86537301D01*
X149095557Y-86543147D01*
X149087140Y-86548192D01*
X149078268Y-86552388D01*
X149069028Y-86555694D01*
X149059509Y-86558079D01*
X149049802Y-86559518D01*
X149040000Y-86560000D01*
X148780000Y-86560000D01*
X148770198Y-86559518D01*
X148760491Y-86558079D01*
X148750972Y-86555694D01*
X148741732Y-86552388D01*
X148732860Y-86548192D01*
X148724443Y-86543147D01*
X148716561Y-86537301D01*
X148709289Y-86530711D01*
X148702699Y-86523439D01*
X148696853Y-86515557D01*
X148691808Y-86507140D01*
X148687612Y-86498268D01*
X148684306Y-86489028D01*
X148681921Y-86479509D01*
X148680482Y-86469802D01*
X148680000Y-86460000D01*
X148680000Y-86260000D01*
X148680482Y-86250198D01*
X148681921Y-86240491D01*
X148684306Y-86230972D01*
X148687612Y-86221732D01*
X148691808Y-86212860D01*
X148696853Y-86204443D01*
X148702699Y-86196561D01*
X148709289Y-86189289D01*
X148716561Y-86182699D01*
X148724443Y-86176853D01*
X148732860Y-86171808D01*
X148741732Y-86167612D01*
X148750972Y-86164306D01*
X148760491Y-86161921D01*
X148770198Y-86160482D01*
X148780000Y-86160000D01*
X149040000Y-86160000D01*
X149049802Y-86160482D01*
X149049802Y-86160482D01*
G37*
D13*
G04 #@! TD*
G04 #@! TO.P,C5,2*
G04 #@! TO.N,GND*
X148910000Y-86360000D03*
D12*
G04 #@! TO.N,+3V3*
G04 #@! TO.C,C5*
G36*
X148409802Y-86160482D02*
X148419509Y-86161921D01*
X148429028Y-86164306D01*
X148438268Y-86167612D01*
X148447140Y-86171808D01*
X148455557Y-86176853D01*
X148463439Y-86182699D01*
X148470711Y-86189289D01*
X148477301Y-86196561D01*
X148483147Y-86204443D01*
X148488192Y-86212860D01*
X148492388Y-86221732D01*
X148495694Y-86230972D01*
X148498079Y-86240491D01*
X148499518Y-86250198D01*
X148500000Y-86260000D01*
X148500000Y-86460000D01*
X148499518Y-86469802D01*
X148498079Y-86479509D01*
X148495694Y-86489028D01*
X148492388Y-86498268D01*
X148488192Y-86507140D01*
X148483147Y-86515557D01*
X148477301Y-86523439D01*
X148470711Y-86530711D01*
X148463439Y-86537301D01*
X148455557Y-86543147D01*
X148447140Y-86548192D01*
X148438268Y-86552388D01*
X148429028Y-86555694D01*
X148419509Y-86558079D01*
X148409802Y-86559518D01*
X148400000Y-86560000D01*
X148140000Y-86560000D01*
X148130198Y-86559518D01*
X148120491Y-86558079D01*
X148110972Y-86555694D01*
X148101732Y-86552388D01*
X148092860Y-86548192D01*
X148084443Y-86543147D01*
X148076561Y-86537301D01*
X148069289Y-86530711D01*
X148062699Y-86523439D01*
X148056853Y-86515557D01*
X148051808Y-86507140D01*
X148047612Y-86498268D01*
X148044306Y-86489028D01*
X148041921Y-86479509D01*
X148040482Y-86469802D01*
X148040000Y-86460000D01*
X148040000Y-86260000D01*
X148040482Y-86250198D01*
X148041921Y-86240491D01*
X148044306Y-86230972D01*
X148047612Y-86221732D01*
X148051808Y-86212860D01*
X148056853Y-86204443D01*
X148062699Y-86196561D01*
X148069289Y-86189289D01*
X148076561Y-86182699D01*
X148084443Y-86176853D01*
X148092860Y-86171808D01*
X148101732Y-86167612D01*
X148110972Y-86164306D01*
X148120491Y-86161921D01*
X148130198Y-86160482D01*
X148140000Y-86160000D01*
X148400000Y-86160000D01*
X148409802Y-86160482D01*
X148409802Y-86160482D01*
G37*
D13*
G04 #@! TD*
G04 #@! TO.P,C5,1*
G04 #@! TO.N,+3V3*
X148270000Y-86360000D03*
D12*
G04 #@! TO.N,GND*
G04 #@! TO.C,C6*
G36*
X169369802Y-86160482D02*
X169379509Y-86161921D01*
X169389028Y-86164306D01*
X169398268Y-86167612D01*
X169407140Y-86171808D01*
X169415557Y-86176853D01*
X169423439Y-86182699D01*
X169430711Y-86189289D01*
X169437301Y-86196561D01*
X169443147Y-86204443D01*
X169448192Y-86212860D01*
X169452388Y-86221732D01*
X169455694Y-86230972D01*
X169458079Y-86240491D01*
X169459518Y-86250198D01*
X169460000Y-86260000D01*
X169460000Y-86460000D01*
X169459518Y-86469802D01*
X169458079Y-86479509D01*
X169455694Y-86489028D01*
X169452388Y-86498268D01*
X169448192Y-86507140D01*
X169443147Y-86515557D01*
X169437301Y-86523439D01*
X169430711Y-86530711D01*
X169423439Y-86537301D01*
X169415557Y-86543147D01*
X169407140Y-86548192D01*
X169398268Y-86552388D01*
X169389028Y-86555694D01*
X169379509Y-86558079D01*
X169369802Y-86559518D01*
X169360000Y-86560000D01*
X169100000Y-86560000D01*
X169090198Y-86559518D01*
X169080491Y-86558079D01*
X169070972Y-86555694D01*
X169061732Y-86552388D01*
X169052860Y-86548192D01*
X169044443Y-86543147D01*
X169036561Y-86537301D01*
X169029289Y-86530711D01*
X169022699Y-86523439D01*
X169016853Y-86515557D01*
X169011808Y-86507140D01*
X169007612Y-86498268D01*
X169004306Y-86489028D01*
X169001921Y-86479509D01*
X169000482Y-86469802D01*
X169000000Y-86460000D01*
X169000000Y-86260000D01*
X169000482Y-86250198D01*
X169001921Y-86240491D01*
X169004306Y-86230972D01*
X169007612Y-86221732D01*
X169011808Y-86212860D01*
X169016853Y-86204443D01*
X169022699Y-86196561D01*
X169029289Y-86189289D01*
X169036561Y-86182699D01*
X169044443Y-86176853D01*
X169052860Y-86171808D01*
X169061732Y-86167612D01*
X169070972Y-86164306D01*
X169080491Y-86161921D01*
X169090198Y-86160482D01*
X169100000Y-86160000D01*
X169360000Y-86160000D01*
X169369802Y-86160482D01*
X169369802Y-86160482D01*
G37*
D13*
G04 #@! TD*
G04 #@! TO.P,C6,2*
G04 #@! TO.N,GND*
X169230000Y-86360000D03*
D12*
G04 #@! TO.N,Net-(C6-Pad1)*
G04 #@! TO.C,C6*
G36*
X168729802Y-86160482D02*
X168739509Y-86161921D01*
X168749028Y-86164306D01*
X168758268Y-86167612D01*
X168767140Y-86171808D01*
X168775557Y-86176853D01*
X168783439Y-86182699D01*
X168790711Y-86189289D01*
X168797301Y-86196561D01*
X168803147Y-86204443D01*
X168808192Y-86212860D01*
X168812388Y-86221732D01*
X168815694Y-86230972D01*
X168818079Y-86240491D01*
X168819518Y-86250198D01*
X168820000Y-86260000D01*
X168820000Y-86460000D01*
X168819518Y-86469802D01*
X168818079Y-86479509D01*
X168815694Y-86489028D01*
X168812388Y-86498268D01*
X168808192Y-86507140D01*
X168803147Y-86515557D01*
X168797301Y-86523439D01*
X168790711Y-86530711D01*
X168783439Y-86537301D01*
X168775557Y-86543147D01*
X168767140Y-86548192D01*
X168758268Y-86552388D01*
X168749028Y-86555694D01*
X168739509Y-86558079D01*
X168729802Y-86559518D01*
X168720000Y-86560000D01*
X168460000Y-86560000D01*
X168450198Y-86559518D01*
X168440491Y-86558079D01*
X168430972Y-86555694D01*
X168421732Y-86552388D01*
X168412860Y-86548192D01*
X168404443Y-86543147D01*
X168396561Y-86537301D01*
X168389289Y-86530711D01*
X168382699Y-86523439D01*
X168376853Y-86515557D01*
X168371808Y-86507140D01*
X168367612Y-86498268D01*
X168364306Y-86489028D01*
X168361921Y-86479509D01*
X168360482Y-86469802D01*
X168360000Y-86460000D01*
X168360000Y-86260000D01*
X168360482Y-86250198D01*
X168361921Y-86240491D01*
X168364306Y-86230972D01*
X168367612Y-86221732D01*
X168371808Y-86212860D01*
X168376853Y-86204443D01*
X168382699Y-86196561D01*
X168389289Y-86189289D01*
X168396561Y-86182699D01*
X168404443Y-86176853D01*
X168412860Y-86171808D01*
X168421732Y-86167612D01*
X168430972Y-86164306D01*
X168440491Y-86161921D01*
X168450198Y-86160482D01*
X168460000Y-86160000D01*
X168720000Y-86160000D01*
X168729802Y-86160482D01*
X168729802Y-86160482D01*
G37*
D13*
G04 #@! TD*
G04 #@! TO.P,C6,1*
G04 #@! TO.N,Net-(C6-Pad1)*
X168590000Y-86360000D03*
D14*
G04 #@! TO.P,D1,3*
G04 #@! TO.N,N/C*
X158750000Y-102870000D03*
D15*
G04 #@! TO.P,D1,2*
G04 #@! TO.N,Net-(C6-Pad1)*
X158300000Y-103910000D03*
G04 #@! TO.P,D1,1*
G04 #@! TO.N,Net-(D1-Pad1)*
X159200000Y-103910000D03*
G04 #@! TD*
G04 #@! TO.P,D2,1*
G04 #@! TO.N,Net-(D2-Pad1)*
X174810000Y-93460000D03*
G04 #@! TO.P,D2,2*
G04 #@! TO.N,Net-(D2-Pad2)*
X175710000Y-93460000D03*
D14*
G04 #@! TO.P,D2,3*
G04 #@! TO.N,N/C*
X175260000Y-94500000D03*
G04 #@! TD*
D12*
G04 #@! TO.N,Net-(D3-Pad1)*
G04 #@! TO.C,D3*
G36*
X171269802Y-93780482D02*
X171279509Y-93781921D01*
X171289028Y-93784306D01*
X171298268Y-93787612D01*
X171307140Y-93791808D01*
X171315557Y-93796853D01*
X171323439Y-93802699D01*
X171330711Y-93809289D01*
X171337301Y-93816561D01*
X171343147Y-93824443D01*
X171348192Y-93832860D01*
X171352388Y-93841732D01*
X171355694Y-93850972D01*
X171358079Y-93860491D01*
X171359518Y-93870198D01*
X171360000Y-93880000D01*
X171360000Y-94080000D01*
X171359518Y-94089802D01*
X171358079Y-94099509D01*
X171355694Y-94109028D01*
X171352388Y-94118268D01*
X171348192Y-94127140D01*
X171343147Y-94135557D01*
X171337301Y-94143439D01*
X171330711Y-94150711D01*
X171323439Y-94157301D01*
X171315557Y-94163147D01*
X171307140Y-94168192D01*
X171298268Y-94172388D01*
X171289028Y-94175694D01*
X171279509Y-94178079D01*
X171269802Y-94179518D01*
X171260000Y-94180000D01*
X171000000Y-94180000D01*
X170990198Y-94179518D01*
X170980491Y-94178079D01*
X170970972Y-94175694D01*
X170961732Y-94172388D01*
X170952860Y-94168192D01*
X170944443Y-94163147D01*
X170936561Y-94157301D01*
X170929289Y-94150711D01*
X170922699Y-94143439D01*
X170916853Y-94135557D01*
X170911808Y-94127140D01*
X170907612Y-94118268D01*
X170904306Y-94109028D01*
X170901921Y-94099509D01*
X170900482Y-94089802D01*
X170900000Y-94080000D01*
X170900000Y-93880000D01*
X170900482Y-93870198D01*
X170901921Y-93860491D01*
X170904306Y-93850972D01*
X170907612Y-93841732D01*
X170911808Y-93832860D01*
X170916853Y-93824443D01*
X170922699Y-93816561D01*
X170929289Y-93809289D01*
X170936561Y-93802699D01*
X170944443Y-93796853D01*
X170952860Y-93791808D01*
X170961732Y-93787612D01*
X170970972Y-93784306D01*
X170980491Y-93781921D01*
X170990198Y-93780482D01*
X171000000Y-93780000D01*
X171260000Y-93780000D01*
X171269802Y-93780482D01*
X171269802Y-93780482D01*
G37*
D13*
G04 #@! TD*
G04 #@! TO.P,D3,1*
G04 #@! TO.N,Net-(D3-Pad1)*
X171130000Y-93980000D03*
D12*
G04 #@! TO.N,+5V*
G04 #@! TO.C,D3*
G36*
X171909802Y-93780482D02*
X171919509Y-93781921D01*
X171929028Y-93784306D01*
X171938268Y-93787612D01*
X171947140Y-93791808D01*
X171955557Y-93796853D01*
X171963439Y-93802699D01*
X171970711Y-93809289D01*
X171977301Y-93816561D01*
X171983147Y-93824443D01*
X171988192Y-93832860D01*
X171992388Y-93841732D01*
X171995694Y-93850972D01*
X171998079Y-93860491D01*
X171999518Y-93870198D01*
X172000000Y-93880000D01*
X172000000Y-94080000D01*
X171999518Y-94089802D01*
X171998079Y-94099509D01*
X171995694Y-94109028D01*
X171992388Y-94118268D01*
X171988192Y-94127140D01*
X171983147Y-94135557D01*
X171977301Y-94143439D01*
X171970711Y-94150711D01*
X171963439Y-94157301D01*
X171955557Y-94163147D01*
X171947140Y-94168192D01*
X171938268Y-94172388D01*
X171929028Y-94175694D01*
X171919509Y-94178079D01*
X171909802Y-94179518D01*
X171900000Y-94180000D01*
X171640000Y-94180000D01*
X171630198Y-94179518D01*
X171620491Y-94178079D01*
X171610972Y-94175694D01*
X171601732Y-94172388D01*
X171592860Y-94168192D01*
X171584443Y-94163147D01*
X171576561Y-94157301D01*
X171569289Y-94150711D01*
X171562699Y-94143439D01*
X171556853Y-94135557D01*
X171551808Y-94127140D01*
X171547612Y-94118268D01*
X171544306Y-94109028D01*
X171541921Y-94099509D01*
X171540482Y-94089802D01*
X171540000Y-94080000D01*
X171540000Y-93880000D01*
X171540482Y-93870198D01*
X171541921Y-93860491D01*
X171544306Y-93850972D01*
X171547612Y-93841732D01*
X171551808Y-93832860D01*
X171556853Y-93824443D01*
X171562699Y-93816561D01*
X171569289Y-93809289D01*
X171576561Y-93802699D01*
X171584443Y-93796853D01*
X171592860Y-93791808D01*
X171601732Y-93787612D01*
X171610972Y-93784306D01*
X171620491Y-93781921D01*
X171630198Y-93780482D01*
X171640000Y-93780000D01*
X171900000Y-93780000D01*
X171909802Y-93780482D01*
X171909802Y-93780482D01*
G37*
D13*
G04 #@! TD*
G04 #@! TO.P,D3,2*
G04 #@! TO.N,+5V*
X171770000Y-93980000D03*
D14*
G04 #@! TO.P,D4,3*
G04 #@! TO.N,N/C*
X182880000Y-95020000D03*
D15*
G04 #@! TO.P,D4,2*
G04 #@! TO.N,Net-(D4-Pad2)*
X183330000Y-93980000D03*
G04 #@! TO.P,D4,1*
G04 #@! TO.N,Net-(D4-Pad1)*
X182430000Y-93980000D03*
G04 #@! TD*
D12*
G04 #@! TO.N,Net-(D3-Pad1)*
G04 #@! TO.C,D5*
G36*
X167754802Y-96320482D02*
X167764509Y-96321921D01*
X167774028Y-96324306D01*
X167783268Y-96327612D01*
X167792140Y-96331808D01*
X167800557Y-96336853D01*
X167808439Y-96342699D01*
X167815711Y-96349289D01*
X167822301Y-96356561D01*
X167828147Y-96364443D01*
X167833192Y-96372860D01*
X167837388Y-96381732D01*
X167840694Y-96390972D01*
X167843079Y-96400491D01*
X167844518Y-96410198D01*
X167845000Y-96420000D01*
X167845000Y-96620000D01*
X167844518Y-96629802D01*
X167843079Y-96639509D01*
X167840694Y-96649028D01*
X167837388Y-96658268D01*
X167833192Y-96667140D01*
X167828147Y-96675557D01*
X167822301Y-96683439D01*
X167815711Y-96690711D01*
X167808439Y-96697301D01*
X167800557Y-96703147D01*
X167792140Y-96708192D01*
X167783268Y-96712388D01*
X167774028Y-96715694D01*
X167764509Y-96718079D01*
X167754802Y-96719518D01*
X167745000Y-96720000D01*
X167485000Y-96720000D01*
X167475198Y-96719518D01*
X167465491Y-96718079D01*
X167455972Y-96715694D01*
X167446732Y-96712388D01*
X167437860Y-96708192D01*
X167429443Y-96703147D01*
X167421561Y-96697301D01*
X167414289Y-96690711D01*
X167407699Y-96683439D01*
X167401853Y-96675557D01*
X167396808Y-96667140D01*
X167392612Y-96658268D01*
X167389306Y-96649028D01*
X167386921Y-96639509D01*
X167385482Y-96629802D01*
X167385000Y-96620000D01*
X167385000Y-96420000D01*
X167385482Y-96410198D01*
X167386921Y-96400491D01*
X167389306Y-96390972D01*
X167392612Y-96381732D01*
X167396808Y-96372860D01*
X167401853Y-96364443D01*
X167407699Y-96356561D01*
X167414289Y-96349289D01*
X167421561Y-96342699D01*
X167429443Y-96336853D01*
X167437860Y-96331808D01*
X167446732Y-96327612D01*
X167455972Y-96324306D01*
X167465491Y-96321921D01*
X167475198Y-96320482D01*
X167485000Y-96320000D01*
X167745000Y-96320000D01*
X167754802Y-96320482D01*
X167754802Y-96320482D01*
G37*
D13*
G04 #@! TD*
G04 #@! TO.P,D5,2*
G04 #@! TO.N,Net-(D3-Pad1)*
X167615000Y-96520000D03*
D12*
G04 #@! TO.N,Net-(C6-Pad1)*
G04 #@! TO.C,D5*
G36*
X167114802Y-96320482D02*
X167124509Y-96321921D01*
X167134028Y-96324306D01*
X167143268Y-96327612D01*
X167152140Y-96331808D01*
X167160557Y-96336853D01*
X167168439Y-96342699D01*
X167175711Y-96349289D01*
X167182301Y-96356561D01*
X167188147Y-96364443D01*
X167193192Y-96372860D01*
X167197388Y-96381732D01*
X167200694Y-96390972D01*
X167203079Y-96400491D01*
X167204518Y-96410198D01*
X167205000Y-96420000D01*
X167205000Y-96620000D01*
X167204518Y-96629802D01*
X167203079Y-96639509D01*
X167200694Y-96649028D01*
X167197388Y-96658268D01*
X167193192Y-96667140D01*
X167188147Y-96675557D01*
X167182301Y-96683439D01*
X167175711Y-96690711D01*
X167168439Y-96697301D01*
X167160557Y-96703147D01*
X167152140Y-96708192D01*
X167143268Y-96712388D01*
X167134028Y-96715694D01*
X167124509Y-96718079D01*
X167114802Y-96719518D01*
X167105000Y-96720000D01*
X166845000Y-96720000D01*
X166835198Y-96719518D01*
X166825491Y-96718079D01*
X166815972Y-96715694D01*
X166806732Y-96712388D01*
X166797860Y-96708192D01*
X166789443Y-96703147D01*
X166781561Y-96697301D01*
X166774289Y-96690711D01*
X166767699Y-96683439D01*
X166761853Y-96675557D01*
X166756808Y-96667140D01*
X166752612Y-96658268D01*
X166749306Y-96649028D01*
X166746921Y-96639509D01*
X166745482Y-96629802D01*
X166745000Y-96620000D01*
X166745000Y-96420000D01*
X166745482Y-96410198D01*
X166746921Y-96400491D01*
X166749306Y-96390972D01*
X166752612Y-96381732D01*
X166756808Y-96372860D01*
X166761853Y-96364443D01*
X166767699Y-96356561D01*
X166774289Y-96349289D01*
X166781561Y-96342699D01*
X166789443Y-96336853D01*
X166797860Y-96331808D01*
X166806732Y-96327612D01*
X166815972Y-96324306D01*
X166825491Y-96321921D01*
X166835198Y-96320482D01*
X166845000Y-96320000D01*
X167105000Y-96320000D01*
X167114802Y-96320482D01*
X167114802Y-96320482D01*
G37*
D13*
G04 #@! TD*
G04 #@! TO.P,D5,1*
G04 #@! TO.N,Net-(C6-Pad1)*
X166975000Y-96520000D03*
D16*
G04 #@! TO.P,J2,6*
G04 #@! TO.N,GND*
X196405000Y-102870000D03*
G04 #@! TO.P,J2,5*
G04 #@! TO.N,Net-(D4-Pad1)*
X196405000Y-100330000D03*
G04 #@! TO.P,J2,4*
G04 #@! TO.N,Net-(J2-Pad4)*
X196405000Y-97790000D03*
G04 #@! TO.P,J2,3*
G04 #@! TO.N,+3V3*
X196405000Y-95250000D03*
G04 #@! TO.P,J2,2*
G04 #@! TO.N,Net-(C6-Pad1)*
X196405000Y-92710000D03*
G04 #@! TO.P,J2,1*
G04 #@! TO.N,+5V*
X196405000Y-90170000D03*
G04 #@! TD*
D12*
G04 #@! TO.N,GND*
G04 #@! TO.C,R1*
G36*
X158249802Y-109020482D02*
X158259509Y-109021921D01*
X158269028Y-109024306D01*
X158278268Y-109027612D01*
X158287140Y-109031808D01*
X158295557Y-109036853D01*
X158303439Y-109042699D01*
X158310711Y-109049289D01*
X158317301Y-109056561D01*
X158323147Y-109064443D01*
X158328192Y-109072860D01*
X158332388Y-109081732D01*
X158335694Y-109090972D01*
X158338079Y-109100491D01*
X158339518Y-109110198D01*
X158340000Y-109120000D01*
X158340000Y-109320000D01*
X158339518Y-109329802D01*
X158338079Y-109339509D01*
X158335694Y-109349028D01*
X158332388Y-109358268D01*
X158328192Y-109367140D01*
X158323147Y-109375557D01*
X158317301Y-109383439D01*
X158310711Y-109390711D01*
X158303439Y-109397301D01*
X158295557Y-109403147D01*
X158287140Y-109408192D01*
X158278268Y-109412388D01*
X158269028Y-109415694D01*
X158259509Y-109418079D01*
X158249802Y-109419518D01*
X158240000Y-109420000D01*
X157980000Y-109420000D01*
X157970198Y-109419518D01*
X157960491Y-109418079D01*
X157950972Y-109415694D01*
X157941732Y-109412388D01*
X157932860Y-109408192D01*
X157924443Y-109403147D01*
X157916561Y-109397301D01*
X157909289Y-109390711D01*
X157902699Y-109383439D01*
X157896853Y-109375557D01*
X157891808Y-109367140D01*
X157887612Y-109358268D01*
X157884306Y-109349028D01*
X157881921Y-109339509D01*
X157880482Y-109329802D01*
X157880000Y-109320000D01*
X157880000Y-109120000D01*
X157880482Y-109110198D01*
X157881921Y-109100491D01*
X157884306Y-109090972D01*
X157887612Y-109081732D01*
X157891808Y-109072860D01*
X157896853Y-109064443D01*
X157902699Y-109056561D01*
X157909289Y-109049289D01*
X157916561Y-109042699D01*
X157924443Y-109036853D01*
X157932860Y-109031808D01*
X157941732Y-109027612D01*
X157950972Y-109024306D01*
X157960491Y-109021921D01*
X157970198Y-109020482D01*
X157980000Y-109020000D01*
X158240000Y-109020000D01*
X158249802Y-109020482D01*
X158249802Y-109020482D01*
G37*
D13*
G04 #@! TD*
G04 #@! TO.P,R1,1*
G04 #@! TO.N,GND*
X158110000Y-109220000D03*
D12*
G04 #@! TO.N,Net-(D1-Pad1)*
G04 #@! TO.C,R1*
G36*
X158889802Y-109020482D02*
X158899509Y-109021921D01*
X158909028Y-109024306D01*
X158918268Y-109027612D01*
X158927140Y-109031808D01*
X158935557Y-109036853D01*
X158943439Y-109042699D01*
X158950711Y-109049289D01*
X158957301Y-109056561D01*
X158963147Y-109064443D01*
X158968192Y-109072860D01*
X158972388Y-109081732D01*
X158975694Y-109090972D01*
X158978079Y-109100491D01*
X158979518Y-109110198D01*
X158980000Y-109120000D01*
X158980000Y-109320000D01*
X158979518Y-109329802D01*
X158978079Y-109339509D01*
X158975694Y-109349028D01*
X158972388Y-109358268D01*
X158968192Y-109367140D01*
X158963147Y-109375557D01*
X158957301Y-109383439D01*
X158950711Y-109390711D01*
X158943439Y-109397301D01*
X158935557Y-109403147D01*
X158927140Y-109408192D01*
X158918268Y-109412388D01*
X158909028Y-109415694D01*
X158899509Y-109418079D01*
X158889802Y-109419518D01*
X158880000Y-109420000D01*
X158620000Y-109420000D01*
X158610198Y-109419518D01*
X158600491Y-109418079D01*
X158590972Y-109415694D01*
X158581732Y-109412388D01*
X158572860Y-109408192D01*
X158564443Y-109403147D01*
X158556561Y-109397301D01*
X158549289Y-109390711D01*
X158542699Y-109383439D01*
X158536853Y-109375557D01*
X158531808Y-109367140D01*
X158527612Y-109358268D01*
X158524306Y-109349028D01*
X158521921Y-109339509D01*
X158520482Y-109329802D01*
X158520000Y-109320000D01*
X158520000Y-109120000D01*
X158520482Y-109110198D01*
X158521921Y-109100491D01*
X158524306Y-109090972D01*
X158527612Y-109081732D01*
X158531808Y-109072860D01*
X158536853Y-109064443D01*
X158542699Y-109056561D01*
X158549289Y-109049289D01*
X158556561Y-109042699D01*
X158564443Y-109036853D01*
X158572860Y-109031808D01*
X158581732Y-109027612D01*
X158590972Y-109024306D01*
X158600491Y-109021921D01*
X158610198Y-109020482D01*
X158620000Y-109020000D01*
X158880000Y-109020000D01*
X158889802Y-109020482D01*
X158889802Y-109020482D01*
G37*
D13*
G04 #@! TD*
G04 #@! TO.P,R1,2*
G04 #@! TO.N,Net-(D1-Pad1)*
X158750000Y-109220000D03*
D12*
G04 #@! TO.N,Net-(C6-Pad1)*
G04 #@! TO.C,R2*
G36*
X175024802Y-85810482D02*
X175034509Y-85811921D01*
X175044028Y-85814306D01*
X175053268Y-85817612D01*
X175062140Y-85821808D01*
X175070557Y-85826853D01*
X175078439Y-85832699D01*
X175085711Y-85839289D01*
X175092301Y-85846561D01*
X175098147Y-85854443D01*
X175103192Y-85862860D01*
X175107388Y-85871732D01*
X175110694Y-85880972D01*
X175113079Y-85890491D01*
X175114518Y-85900198D01*
X175115000Y-85910000D01*
X175115000Y-86170000D01*
X175114518Y-86179802D01*
X175113079Y-86189509D01*
X175110694Y-86199028D01*
X175107388Y-86208268D01*
X175103192Y-86217140D01*
X175098147Y-86225557D01*
X175092301Y-86233439D01*
X175085711Y-86240711D01*
X175078439Y-86247301D01*
X175070557Y-86253147D01*
X175062140Y-86258192D01*
X175053268Y-86262388D01*
X175044028Y-86265694D01*
X175034509Y-86268079D01*
X175024802Y-86269518D01*
X175015000Y-86270000D01*
X174815000Y-86270000D01*
X174805198Y-86269518D01*
X174795491Y-86268079D01*
X174785972Y-86265694D01*
X174776732Y-86262388D01*
X174767860Y-86258192D01*
X174759443Y-86253147D01*
X174751561Y-86247301D01*
X174744289Y-86240711D01*
X174737699Y-86233439D01*
X174731853Y-86225557D01*
X174726808Y-86217140D01*
X174722612Y-86208268D01*
X174719306Y-86199028D01*
X174716921Y-86189509D01*
X174715482Y-86179802D01*
X174715000Y-86170000D01*
X174715000Y-85910000D01*
X174715482Y-85900198D01*
X174716921Y-85890491D01*
X174719306Y-85880972D01*
X174722612Y-85871732D01*
X174726808Y-85862860D01*
X174731853Y-85854443D01*
X174737699Y-85846561D01*
X174744289Y-85839289D01*
X174751561Y-85832699D01*
X174759443Y-85826853D01*
X174767860Y-85821808D01*
X174776732Y-85817612D01*
X174785972Y-85814306D01*
X174795491Y-85811921D01*
X174805198Y-85810482D01*
X174815000Y-85810000D01*
X175015000Y-85810000D01*
X175024802Y-85810482D01*
X175024802Y-85810482D01*
G37*
D13*
G04 #@! TD*
G04 #@! TO.P,R2,1*
G04 #@! TO.N,Net-(C6-Pad1)*
X174915000Y-86040000D03*
D12*
G04 #@! TO.N,Net-(D2-Pad2)*
G04 #@! TO.C,R2*
G36*
X175024802Y-86450482D02*
X175034509Y-86451921D01*
X175044028Y-86454306D01*
X175053268Y-86457612D01*
X175062140Y-86461808D01*
X175070557Y-86466853D01*
X175078439Y-86472699D01*
X175085711Y-86479289D01*
X175092301Y-86486561D01*
X175098147Y-86494443D01*
X175103192Y-86502860D01*
X175107388Y-86511732D01*
X175110694Y-86520972D01*
X175113079Y-86530491D01*
X175114518Y-86540198D01*
X175115000Y-86550000D01*
X175115000Y-86810000D01*
X175114518Y-86819802D01*
X175113079Y-86829509D01*
X175110694Y-86839028D01*
X175107388Y-86848268D01*
X175103192Y-86857140D01*
X175098147Y-86865557D01*
X175092301Y-86873439D01*
X175085711Y-86880711D01*
X175078439Y-86887301D01*
X175070557Y-86893147D01*
X175062140Y-86898192D01*
X175053268Y-86902388D01*
X175044028Y-86905694D01*
X175034509Y-86908079D01*
X175024802Y-86909518D01*
X175015000Y-86910000D01*
X174815000Y-86910000D01*
X174805198Y-86909518D01*
X174795491Y-86908079D01*
X174785972Y-86905694D01*
X174776732Y-86902388D01*
X174767860Y-86898192D01*
X174759443Y-86893147D01*
X174751561Y-86887301D01*
X174744289Y-86880711D01*
X174737699Y-86873439D01*
X174731853Y-86865557D01*
X174726808Y-86857140D01*
X174722612Y-86848268D01*
X174719306Y-86839028D01*
X174716921Y-86829509D01*
X174715482Y-86819802D01*
X174715000Y-86810000D01*
X174715000Y-86550000D01*
X174715482Y-86540198D01*
X174716921Y-86530491D01*
X174719306Y-86520972D01*
X174722612Y-86511732D01*
X174726808Y-86502860D01*
X174731853Y-86494443D01*
X174737699Y-86486561D01*
X174744289Y-86479289D01*
X174751561Y-86472699D01*
X174759443Y-86466853D01*
X174767860Y-86461808D01*
X174776732Y-86457612D01*
X174785972Y-86454306D01*
X174795491Y-86451921D01*
X174805198Y-86450482D01*
X174815000Y-86450000D01*
X175015000Y-86450000D01*
X175024802Y-86450482D01*
X175024802Y-86450482D01*
G37*
D13*
G04 #@! TD*
G04 #@! TO.P,R2,2*
G04 #@! TO.N,Net-(D2-Pad2)*
X174915000Y-86680000D03*
D12*
G04 #@! TO.N,Net-(D4-Pad2)*
G04 #@! TO.C,R3*
G36*
X180449802Y-86450482D02*
X180459509Y-86451921D01*
X180469028Y-86454306D01*
X180478268Y-86457612D01*
X180487140Y-86461808D01*
X180495557Y-86466853D01*
X180503439Y-86472699D01*
X180510711Y-86479289D01*
X180517301Y-86486561D01*
X180523147Y-86494443D01*
X180528192Y-86502860D01*
X180532388Y-86511732D01*
X180535694Y-86520972D01*
X180538079Y-86530491D01*
X180539518Y-86540198D01*
X180540000Y-86550000D01*
X180540000Y-86810000D01*
X180539518Y-86819802D01*
X180538079Y-86829509D01*
X180535694Y-86839028D01*
X180532388Y-86848268D01*
X180528192Y-86857140D01*
X180523147Y-86865557D01*
X180517301Y-86873439D01*
X180510711Y-86880711D01*
X180503439Y-86887301D01*
X180495557Y-86893147D01*
X180487140Y-86898192D01*
X180478268Y-86902388D01*
X180469028Y-86905694D01*
X180459509Y-86908079D01*
X180449802Y-86909518D01*
X180440000Y-86910000D01*
X180240000Y-86910000D01*
X180230198Y-86909518D01*
X180220491Y-86908079D01*
X180210972Y-86905694D01*
X180201732Y-86902388D01*
X180192860Y-86898192D01*
X180184443Y-86893147D01*
X180176561Y-86887301D01*
X180169289Y-86880711D01*
X180162699Y-86873439D01*
X180156853Y-86865557D01*
X180151808Y-86857140D01*
X180147612Y-86848268D01*
X180144306Y-86839028D01*
X180141921Y-86829509D01*
X180140482Y-86819802D01*
X180140000Y-86810000D01*
X180140000Y-86550000D01*
X180140482Y-86540198D01*
X180141921Y-86530491D01*
X180144306Y-86520972D01*
X180147612Y-86511732D01*
X180151808Y-86502860D01*
X180156853Y-86494443D01*
X180162699Y-86486561D01*
X180169289Y-86479289D01*
X180176561Y-86472699D01*
X180184443Y-86466853D01*
X180192860Y-86461808D01*
X180201732Y-86457612D01*
X180210972Y-86454306D01*
X180220491Y-86451921D01*
X180230198Y-86450482D01*
X180240000Y-86450000D01*
X180440000Y-86450000D01*
X180449802Y-86450482D01*
X180449802Y-86450482D01*
G37*
D13*
G04 #@! TD*
G04 #@! TO.P,R3,2*
G04 #@! TO.N,Net-(D4-Pad2)*
X180340000Y-86680000D03*
D12*
G04 #@! TO.N,Net-(C6-Pad1)*
G04 #@! TO.C,R3*
G36*
X180449802Y-85810482D02*
X180459509Y-85811921D01*
X180469028Y-85814306D01*
X180478268Y-85817612D01*
X180487140Y-85821808D01*
X180495557Y-85826853D01*
X180503439Y-85832699D01*
X180510711Y-85839289D01*
X180517301Y-85846561D01*
X180523147Y-85854443D01*
X180528192Y-85862860D01*
X180532388Y-85871732D01*
X180535694Y-85880972D01*
X180538079Y-85890491D01*
X180539518Y-85900198D01*
X180540000Y-85910000D01*
X180540000Y-86170000D01*
X180539518Y-86179802D01*
X180538079Y-86189509D01*
X180535694Y-86199028D01*
X180532388Y-86208268D01*
X180528192Y-86217140D01*
X180523147Y-86225557D01*
X180517301Y-86233439D01*
X180510711Y-86240711D01*
X180503439Y-86247301D01*
X180495557Y-86253147D01*
X180487140Y-86258192D01*
X180478268Y-86262388D01*
X180469028Y-86265694D01*
X180459509Y-86268079D01*
X180449802Y-86269518D01*
X180440000Y-86270000D01*
X180240000Y-86270000D01*
X180230198Y-86269518D01*
X180220491Y-86268079D01*
X180210972Y-86265694D01*
X180201732Y-86262388D01*
X180192860Y-86258192D01*
X180184443Y-86253147D01*
X180176561Y-86247301D01*
X180169289Y-86240711D01*
X180162699Y-86233439D01*
X180156853Y-86225557D01*
X180151808Y-86217140D01*
X180147612Y-86208268D01*
X180144306Y-86199028D01*
X180141921Y-86189509D01*
X180140482Y-86179802D01*
X180140000Y-86170000D01*
X180140000Y-85910000D01*
X180140482Y-85900198D01*
X180141921Y-85890491D01*
X180144306Y-85880972D01*
X180147612Y-85871732D01*
X180151808Y-85862860D01*
X180156853Y-85854443D01*
X180162699Y-85846561D01*
X180169289Y-85839289D01*
X180176561Y-85832699D01*
X180184443Y-85826853D01*
X180192860Y-85821808D01*
X180201732Y-85817612D01*
X180210972Y-85814306D01*
X180220491Y-85811921D01*
X180230198Y-85810482D01*
X180240000Y-85810000D01*
X180440000Y-85810000D01*
X180449802Y-85810482D01*
X180449802Y-85810482D01*
G37*
D13*
G04 #@! TD*
G04 #@! TO.P,R3,1*
G04 #@! TO.N,Net-(C6-Pad1)*
X180340000Y-86040000D03*
D12*
G04 #@! TO.N,Net-(D2-Pad1)*
G04 #@! TO.C,R4*
G36*
X187149802Y-102670482D02*
X187159509Y-102671921D01*
X187169028Y-102674306D01*
X187178268Y-102677612D01*
X187187140Y-102681808D01*
X187195557Y-102686853D01*
X187203439Y-102692699D01*
X187210711Y-102699289D01*
X187217301Y-102706561D01*
X187223147Y-102714443D01*
X187228192Y-102722860D01*
X187232388Y-102731732D01*
X187235694Y-102740972D01*
X187238079Y-102750491D01*
X187239518Y-102760198D01*
X187240000Y-102770000D01*
X187240000Y-102970000D01*
X187239518Y-102979802D01*
X187238079Y-102989509D01*
X187235694Y-102999028D01*
X187232388Y-103008268D01*
X187228192Y-103017140D01*
X187223147Y-103025557D01*
X187217301Y-103033439D01*
X187210711Y-103040711D01*
X187203439Y-103047301D01*
X187195557Y-103053147D01*
X187187140Y-103058192D01*
X187178268Y-103062388D01*
X187169028Y-103065694D01*
X187159509Y-103068079D01*
X187149802Y-103069518D01*
X187140000Y-103070000D01*
X186880000Y-103070000D01*
X186870198Y-103069518D01*
X186860491Y-103068079D01*
X186850972Y-103065694D01*
X186841732Y-103062388D01*
X186832860Y-103058192D01*
X186824443Y-103053147D01*
X186816561Y-103047301D01*
X186809289Y-103040711D01*
X186802699Y-103033439D01*
X186796853Y-103025557D01*
X186791808Y-103017140D01*
X186787612Y-103008268D01*
X186784306Y-102999028D01*
X186781921Y-102989509D01*
X186780482Y-102979802D01*
X186780000Y-102970000D01*
X186780000Y-102770000D01*
X186780482Y-102760198D01*
X186781921Y-102750491D01*
X186784306Y-102740972D01*
X186787612Y-102731732D01*
X186791808Y-102722860D01*
X186796853Y-102714443D01*
X186802699Y-102706561D01*
X186809289Y-102699289D01*
X186816561Y-102692699D01*
X186824443Y-102686853D01*
X186832860Y-102681808D01*
X186841732Y-102677612D01*
X186850972Y-102674306D01*
X186860491Y-102671921D01*
X186870198Y-102670482D01*
X186880000Y-102670000D01*
X187140000Y-102670000D01*
X187149802Y-102670482D01*
X187149802Y-102670482D01*
G37*
D13*
G04 #@! TD*
G04 #@! TO.P,R4,2*
G04 #@! TO.N,Net-(D2-Pad1)*
X187010000Y-102870000D03*
D12*
G04 #@! TO.N,Net-(J2-Pad4)*
G04 #@! TO.C,R4*
G36*
X186509802Y-102670482D02*
X186519509Y-102671921D01*
X186529028Y-102674306D01*
X186538268Y-102677612D01*
X186547140Y-102681808D01*
X186555557Y-102686853D01*
X186563439Y-102692699D01*
X186570711Y-102699289D01*
X186577301Y-102706561D01*
X186583147Y-102714443D01*
X186588192Y-102722860D01*
X186592388Y-102731732D01*
X186595694Y-102740972D01*
X186598079Y-102750491D01*
X186599518Y-102760198D01*
X186600000Y-102770000D01*
X186600000Y-102970000D01*
X186599518Y-102979802D01*
X186598079Y-102989509D01*
X186595694Y-102999028D01*
X186592388Y-103008268D01*
X186588192Y-103017140D01*
X186583147Y-103025557D01*
X186577301Y-103033439D01*
X186570711Y-103040711D01*
X186563439Y-103047301D01*
X186555557Y-103053147D01*
X186547140Y-103058192D01*
X186538268Y-103062388D01*
X186529028Y-103065694D01*
X186519509Y-103068079D01*
X186509802Y-103069518D01*
X186500000Y-103070000D01*
X186240000Y-103070000D01*
X186230198Y-103069518D01*
X186220491Y-103068079D01*
X186210972Y-103065694D01*
X186201732Y-103062388D01*
X186192860Y-103058192D01*
X186184443Y-103053147D01*
X186176561Y-103047301D01*
X186169289Y-103040711D01*
X186162699Y-103033439D01*
X186156853Y-103025557D01*
X186151808Y-103017140D01*
X186147612Y-103008268D01*
X186144306Y-102999028D01*
X186141921Y-102989509D01*
X186140482Y-102979802D01*
X186140000Y-102970000D01*
X186140000Y-102770000D01*
X186140482Y-102760198D01*
X186141921Y-102750491D01*
X186144306Y-102740972D01*
X186147612Y-102731732D01*
X186151808Y-102722860D01*
X186156853Y-102714443D01*
X186162699Y-102706561D01*
X186169289Y-102699289D01*
X186176561Y-102692699D01*
X186184443Y-102686853D01*
X186192860Y-102681808D01*
X186201732Y-102677612D01*
X186210972Y-102674306D01*
X186220491Y-102671921D01*
X186230198Y-102670482D01*
X186240000Y-102670000D01*
X186500000Y-102670000D01*
X186509802Y-102670482D01*
X186509802Y-102670482D01*
G37*
D13*
G04 #@! TD*
G04 #@! TO.P,R4,1*
G04 #@! TO.N,Net-(J2-Pad4)*
X186370000Y-102870000D03*
D17*
G04 #@! TO.P,U1,16*
G04 #@! TO.N,Net-(C6-Pad1)*
X162720000Y-86995000D03*
G04 #@! TO.P,U1,15*
G04 #@! TO.N,Net-(U1-Pad15)*
X162720000Y-88265000D03*
G04 #@! TO.P,U1,14*
G04 #@! TO.N,Net-(U1-Pad14)*
X162720000Y-89535000D03*
G04 #@! TO.P,U1,13*
G04 #@! TO.N,Net-(U1-Pad13)*
X162720000Y-90805000D03*
G04 #@! TO.P,U1,12*
G04 #@! TO.N,Net-(U1-Pad12)*
X162720000Y-92075000D03*
G04 #@! TO.P,U1,11*
G04 #@! TO.N,Net-(U1-Pad11)*
X162720000Y-93345000D03*
G04 #@! TO.P,U1,10*
G04 #@! TO.N,Net-(U1-Pad10)*
X162720000Y-94615000D03*
G04 #@! TO.P,U1,9*
G04 #@! TO.N,Net-(U1-Pad9)*
X162720000Y-95885000D03*
G04 #@! TO.P,U1,8*
G04 #@! TO.N,Net-(C4-Pad1)*
X157320000Y-95885000D03*
G04 #@! TO.P,U1,7*
G04 #@! TO.N,Net-(C3-Pad1)*
X157320000Y-94615000D03*
G04 #@! TO.P,U1,6*
G04 #@! TO.N,Net-(J1-Pad2)*
X157320000Y-93345000D03*
G04 #@! TO.P,U1,5*
G04 #@! TO.N,Net-(J1-Pad3)*
X157320000Y-92075000D03*
G04 #@! TO.P,U1,4*
G04 #@! TO.N,+3V3*
X157320000Y-90805000D03*
G04 #@! TO.P,U1,3*
G04 #@! TO.N,Net-(D4-Pad1)*
X157320000Y-89535000D03*
G04 #@! TO.P,U1,2*
G04 #@! TO.N,Net-(D2-Pad1)*
X157320000Y-88265000D03*
G04 #@! TO.P,U1,1*
G04 #@! TO.N,GND*
X157320000Y-86995000D03*
G04 #@! TD*
D18*
G04 #@! TO.P,Y1,2*
G04 #@! TO.N,Net-(C4-Pad1)*
X144780000Y-95250000D03*
G04 #@! TO.P,Y1,1*
G04 #@! TO.N,Net-(C3-Pad1)*
X142240000Y-95250000D03*
G04 #@! TD*
D19*
G04 #@! TO.N,+3V3*
X194544300Y-95250000D03*
X161258400Y-90885800D03*
G04 #@! TD*
D20*
G04 #@! TO.N,GND*
X148582400Y-96103100D02*
X149195000Y-95490500D01*
X149195000Y-95490500D02*
X149195000Y-95250000D01*
X138572500Y-95357500D02*
X139318100Y-96103100D01*
X139318100Y-96103100D02*
X148582400Y-96103100D01*
X158110000Y-109220000D02*
X148582400Y-99692400D01*
X148582400Y-99692400D02*
X148582400Y-96103100D01*
X111505300Y-103220000D02*
X130710000Y-103220000D01*
X130710000Y-103220000D02*
X138572500Y-95357500D01*
X158110000Y-109220000D02*
X158110000Y-109447600D01*
X158110000Y-109447600D02*
X158413300Y-109750900D01*
X158413300Y-109750900D02*
X187948800Y-109750900D01*
X187948800Y-109750900D02*
X194829700Y-102870000D01*
X138572500Y-95357500D02*
X138465000Y-95250000D01*
X109430000Y-103220000D02*
X111505300Y-103220000D01*
X106680000Y-101020000D02*
X108255300Y-101020000D01*
X109430000Y-103220000D02*
X108255300Y-102045300D01*
X108255300Y-102045300D02*
X108255300Y-101020000D01*
X138853300Y-86256700D02*
X138750000Y-86360000D01*
X148910000Y-86360000D02*
X148910000Y-86110300D01*
X148910000Y-86110300D02*
X148633900Y-85834200D01*
X148633900Y-85834200D02*
X139275800Y-85834200D01*
X139275800Y-85834200D02*
X138853300Y-86256700D01*
X138853300Y-86256700D02*
X138430800Y-85834200D01*
X138430800Y-85834200D02*
X133979500Y-85834200D01*
X133979500Y-85834200D02*
X133670000Y-86143700D01*
X133670000Y-86143700D02*
X133670000Y-86360000D01*
X109430000Y-91820000D02*
X115415800Y-85834200D01*
X115415800Y-85834200D02*
X133360500Y-85834200D01*
X133360500Y-85834200D02*
X133670000Y-86143700D01*
X196405000Y-102870000D02*
X194829700Y-102870000D01*
X156244700Y-86995000D02*
X155609700Y-86360000D01*
X155609700Y-86360000D02*
X148910000Y-86360000D01*
X157320000Y-86995000D02*
X156244700Y-86995000D01*
X157320000Y-86995000D02*
X158395300Y-86995000D01*
X169230000Y-86360000D02*
X169230000Y-86134700D01*
X169230000Y-86134700D02*
X168918100Y-85822800D01*
X168918100Y-85822800D02*
X159567500Y-85822800D01*
X159567500Y-85822800D02*
X158395300Y-86995000D01*
G04 #@! TO.N,+5V*
X171770000Y-93980000D02*
X171770000Y-94139200D01*
X171770000Y-94139200D02*
X181929200Y-104298400D01*
X181929200Y-104298400D02*
X187721800Y-104298400D01*
X187721800Y-104298400D02*
X190864700Y-101155500D01*
X190864700Y-101155500D02*
X197817200Y-101155500D01*
X197817200Y-101155500D02*
X198430600Y-100542100D01*
X198430600Y-100542100D02*
X198430600Y-95062400D01*
X198430600Y-95062400D02*
X197348200Y-93980000D01*
X197348200Y-93980000D02*
X195451600Y-93980000D01*
X195451600Y-93980000D02*
X194829700Y-93358100D01*
X194829700Y-93358100D02*
X194829700Y-90170000D01*
X106680000Y-94020000D02*
X112714700Y-94020000D01*
X112714700Y-94020000D02*
X119815000Y-86919700D01*
X119815000Y-86919700D02*
X133030000Y-86919700D01*
X137970100Y-86499900D02*
X142900500Y-91430400D01*
X142900500Y-91430400D02*
X160777300Y-91430400D01*
X160777300Y-91430400D02*
X160958000Y-91611100D01*
X160958000Y-91611100D02*
X161558900Y-91611100D01*
X161558900Y-91611100D02*
X161739600Y-91430400D01*
X161739600Y-91430400D02*
X168152200Y-91430400D01*
X168152200Y-91430400D02*
X168602300Y-91880500D01*
X168602300Y-91880500D02*
X169239200Y-91880500D01*
X169239200Y-91880500D02*
X170200000Y-92841300D01*
X170200000Y-92841300D02*
X170836900Y-92841300D01*
X170836900Y-92841300D02*
X171686600Y-93691000D01*
X171686600Y-93691000D02*
X171686600Y-93896600D01*
X171686600Y-93896600D02*
X171770000Y-93980000D01*
X196405000Y-90170000D02*
X194829700Y-90170000D01*
X137970100Y-86499900D02*
X137550300Y-86919700D01*
X137550300Y-86919700D02*
X133030000Y-86919700D01*
X138110000Y-86360000D02*
X137970100Y-86499900D01*
X133030000Y-86919700D02*
X133030000Y-86360000D01*
G04 #@! TO.N,Net-(C3-Pad1)*
X142240000Y-95250000D02*
X143238200Y-94251800D01*
X143238200Y-94251800D02*
X155881500Y-94251800D01*
X155881500Y-94251800D02*
X156244700Y-94615000D01*
X157320000Y-94615000D02*
X156244700Y-94615000D01*
X142240000Y-95250000D02*
X141710900Y-94720900D01*
X141710900Y-94720900D02*
X138142400Y-94720900D01*
X138142400Y-94720900D02*
X137825000Y-95038300D01*
X137825000Y-95038300D02*
X137825000Y-95250000D01*
G04 #@! TO.N,Net-(C4-Pad1)*
X148555000Y-95250000D02*
X148555000Y-95000200D01*
X148555000Y-95000200D02*
X148830900Y-94724300D01*
X148830900Y-94724300D02*
X149782900Y-94724300D01*
X149782900Y-94724300D02*
X150943600Y-95885000D01*
X150943600Y-95885000D02*
X157320000Y-95885000D01*
X144780000Y-95250000D02*
X148555000Y-95250000D01*
G04 #@! TO.N,+3V3*
X157320000Y-90805000D02*
X161177600Y-90805000D01*
X161177600Y-90805000D02*
X161258400Y-90885800D01*
X194829700Y-95250000D02*
X194544300Y-95250000D01*
X196405000Y-95250000D02*
X194829700Y-95250000D01*
X156782400Y-90805000D02*
X157320000Y-90805000D01*
X156244700Y-90805000D02*
X152515000Y-90805000D01*
X152515000Y-90805000D02*
X148270000Y-86560000D01*
X148270000Y-86560000D02*
X148270000Y-86360000D01*
X156782400Y-90805000D02*
X156244700Y-90805000D01*
G04 #@! TO.N,Net-(C6-Pad1)*
X166975000Y-96747500D02*
X174976200Y-104748700D01*
X174976200Y-104748700D02*
X187908500Y-104748700D01*
X187908500Y-104748700D02*
X191051400Y-101605800D01*
X191051400Y-101605800D02*
X198005400Y-101605800D01*
X198005400Y-101605800D02*
X198880900Y-100730300D01*
X198880900Y-100730300D02*
X198880900Y-93610600D01*
X198880900Y-93610600D02*
X197980300Y-92710000D01*
X166975000Y-96520000D02*
X166975000Y-96747500D01*
X166975000Y-96747500D02*
X163043500Y-96747500D01*
X163043500Y-96747500D02*
X157699700Y-102091300D01*
X157699700Y-102091300D02*
X157699700Y-103910000D01*
X158300000Y-103910000D02*
X157699700Y-103910000D01*
X162720000Y-86995000D02*
X163795300Y-86995000D01*
X168590000Y-86957700D02*
X163832600Y-86957700D01*
X163832600Y-86957700D02*
X163795300Y-86995000D01*
X174915000Y-86040000D02*
X171484200Y-86040000D01*
X171484200Y-86040000D02*
X170566500Y-86957700D01*
X170566500Y-86957700D02*
X168590000Y-86957700D01*
X168590000Y-86957700D02*
X168590000Y-86360000D01*
X180340000Y-86040000D02*
X174915000Y-86040000D01*
X197867700Y-92710000D02*
X197980300Y-92710000D01*
X196405000Y-92710000D02*
X197867700Y-92710000D01*
X180340000Y-86040000D02*
X194533600Y-86040000D01*
X194533600Y-86040000D02*
X197980300Y-89486700D01*
X197980300Y-89486700D02*
X197980300Y-92710000D01*
G04 #@! TO.N,Net-(D1-Pad1)*
X159200000Y-103910000D02*
X159200000Y-108770000D01*
X159200000Y-108770000D02*
X158750000Y-109220000D01*
G04 #@! TO.N,Net-(D2-Pad2)*
X175710000Y-93460000D02*
X175710000Y-87475000D01*
X175710000Y-87475000D02*
X174915000Y-86680000D01*
G04 #@! TO.N,Net-(D2-Pad1)*
X174187300Y-92989900D02*
X174187300Y-95226400D01*
X174187300Y-95226400D02*
X182358700Y-103397800D01*
X182358700Y-103397800D02*
X186700700Y-103397800D01*
X186700700Y-103397800D02*
X187010000Y-103088500D01*
X187010000Y-103088500D02*
X187010000Y-102870000D01*
X174810000Y-92944700D02*
X174232500Y-92944700D01*
X174232500Y-92944700D02*
X174187300Y-92989900D01*
X158395300Y-88265000D02*
X159020600Y-88890300D01*
X159020600Y-88890300D02*
X170087700Y-88890300D01*
X170087700Y-88890300D02*
X174187300Y-92989900D01*
X174810000Y-93460000D02*
X174810000Y-92944700D01*
X157320000Y-88265000D02*
X158395300Y-88265000D01*
G04 #@! TO.N,Net-(D3-Pad1)*
X167615000Y-96520000D02*
X170155000Y-93980000D01*
X170155000Y-93980000D02*
X171130000Y-93980000D01*
G04 #@! TO.N,Net-(D4-Pad1)*
X157320000Y-89535000D02*
X158395300Y-89535000D01*
X158395300Y-89535000D02*
X159020600Y-90160300D01*
X159020600Y-90160300D02*
X168794500Y-90160300D01*
X168794500Y-90160300D02*
X173031300Y-94397100D01*
X173031300Y-94397100D02*
X173031300Y-94713700D01*
X173031300Y-94713700D02*
X182165700Y-103848100D01*
X182165700Y-103848100D02*
X186887300Y-103848100D01*
X186887300Y-103848100D02*
X190405400Y-100330000D01*
X190405400Y-100330000D02*
X196405000Y-100330000D01*
X197980300Y-100330000D02*
X197980300Y-97155200D01*
X197980300Y-97155200D02*
X196984400Y-96159300D01*
X196984400Y-96159300D02*
X182258400Y-96159300D01*
X182258400Y-96159300D02*
X181829700Y-95730600D01*
X181829700Y-95730600D02*
X181829700Y-93980000D01*
X182430000Y-93980000D02*
X181829700Y-93980000D01*
X196405000Y-100330000D02*
X197980300Y-100330000D01*
G04 #@! TO.N,Net-(D4-Pad2)*
X183330000Y-93980000D02*
X183330000Y-89670000D01*
X183330000Y-89670000D02*
X180340000Y-86680000D01*
G04 #@! TO.N,Net-(J1-Pad2)*
X156244700Y-93345000D02*
X114030100Y-93345000D01*
X114030100Y-93345000D02*
X110855100Y-96520000D01*
X110855100Y-96520000D02*
X106680000Y-96520000D01*
X157320000Y-93345000D02*
X156244700Y-93345000D01*
G04 #@! TO.N,Net-(J1-Pad3)*
X157320000Y-92075000D02*
X158395300Y-92075000D01*
X158395300Y-92075000D02*
X158395300Y-93834400D01*
X158395300Y-93834400D02*
X158259300Y-93970400D01*
X158259300Y-93970400D02*
X156413600Y-93970400D01*
X156413600Y-93970400D02*
X156238600Y-93795400D01*
X156238600Y-93795400D02*
X114216600Y-93795400D01*
X114216600Y-93795400D02*
X109492000Y-98520000D01*
X109492000Y-98520000D02*
X106680000Y-98520000D01*
G04 #@! TO.N,Net-(J2-Pad4)*
X196405000Y-97790000D02*
X191236800Y-97790000D01*
X191236800Y-97790000D02*
X186370000Y-102656800D01*
X186370000Y-102656800D02*
X186370000Y-102870000D01*
G04 #@! TD*
M02*
